<svg xmlns="http://www.w3.org/2000/svg" width="900" height="640" viewBox="0 0 900 640">
<rect width="100%" height="100%" fill="#ffffff"/>
<text x="70" y="38" font-size="22" font-family="Arial" font-weight="700">Fusion Representation</text>
<line x1="70" y1="570" x2="830" y2="570" stroke="#333"/>
<line x1="70" y1="70" x2="70" y2="570" stroke="#333"/>
<text x="420" y="618" font-size="14" font-family="Arial">PC1</text>
<text x="22" y="320" font-size="14" font-family="Arial" transform="rotate(-90 22,320)">PC2</text>
<circle cx="439.66" cy="268.17" r="4" fill="#d73027" fill-opacity="0.72" /><circle cx="303.35" cy="368.08" r="4" fill="#d73027" fill-opacity="0.72" /><circle cx="322.00" cy="355.53" r="4" fill="#d73027" fill-opacity="0.72" /><circle cx="328.78" cy="356.65" r="4" fill="#d73027" fill-opacity="0.72" /><circle cx="343.27" cy="354.33" r="4" fill="#d73027" fill-opacity="0.72" /><circle cx="273.93" cy="486.15" r="4" fill="#d73027" fill-opacity="0.72" /><circle cx="184.59" cy="465.05" r="4" fill="#d73027" fill-opacity="0.72" /><circle cx="386.73" cy="273.40" r="4" fill="#d73027" fill-opacity="0.72" /><circle cx="374.24" cy="445.19" r="4" fill="#d73027" fill-opacity="0.72" /><circle cx="320.01" cy="414.85" r="4" fill="#d73027" fill-opacity="0.72" /><circle cx="250.92" cy="273.90" r="4" fill="#d73027" fill-opacity="0.72" /><circle cx="279.58" cy="529.20" r="4" fill="#d73027" fill-opacity="0.72" /><circle cx="354.28" cy="446.57" r="4" fill="#d73027" fill-opacity="0.72" /><circle cx="171.30" cy="417.21" r="4" fill="#d73027" fill-opacity="0.72" /><circle cx="369.55" cy="460.57" r="4" fill="#d73027" fill-opacity="0.72" /><circle cx="281.12" cy="376.92" r="4" fill="#d73027" fill-opacity="0.72" /><circle cx="238.52" cy="391.59" r="4" fill="#d73027" fill-opacity="0.72" /><circle cx="367.54" cy="343.87" r="4" fill="#d73027" fill-opacity="0.72" /><circle cx="345.43" cy="414.23" r="4" fill="#d73027" fill-opacity="0.72" /><circle cx="315.90" cy="375.76" r="4" fill="#d73027" fill-opacity="0.72" /><circle cx="281.47" cy="454.20" r="4" fill="#d73027" fill-opacity="0.72" /><circle cx="364.72" cy="374.54" r="4" fill="#d73027" fill-opacity="0.72" /><circle cx="208.82" cy="441.14" r="4" fill="#d73027" fill-opacity="0.72" /><circle cx="362.82" cy="388.80" r="4" fill="#d73027" fill-opacity="0.72" /><circle cx="374.82" cy="215.59" r="4" fill="#d73027" fill-opacity="0.72" /><circle cx="278.36" cy="352.99" r="4" fill="#d73027" fill-opacity="0.72" /><circle cx="318.49" cy="330.11" r="4" fill="#d73027" fill-opacity="0.72" /><circle cx="339.09" cy="323.26" r="4" fill="#d73027" fill-opacity="0.72" /><circle cx="300.69" cy="398.22" r="4" fill="#d73027" fill-opacity="0.72" /><circle cx="269.28" cy="479.23" r="4" fill="#d73027" fill-opacity="0.72" /><circle cx="530.26" cy="272.95" r="4" fill="#d73027" fill-opacity="0.72" /><circle cx="514.69" cy="357.96" r="4" fill="#d73027" fill-opacity="0.72" /><circle cx="420.23" cy="339.25" r="4" fill="#d73027" fill-opacity="0.72" /><circle cx="336.83" cy="318.26" r="4" fill="#d73027" fill-opacity="0.72" /><circle cx="385.68" cy="372.45" r="4" fill="#d73027" fill-opacity="0.72" /><circle cx="200.55" cy="536.19" r="4" fill="#d73027" fill-opacity="0.72" /><circle cx="281.25" cy="455.82" r="4" fill="#d73027" fill-opacity="0.72" /><circle cx="304.37" cy="442.04" r="4" fill="#d73027" fill-opacity="0.72" /><circle cx="301.56" cy="359.89" r="4" fill="#d73027" fill-opacity="0.72" /><circle cx="286.94" cy="423.79" r="4" fill="#d73027" fill-opacity="0.72" /><circle cx="660.76" cy="348.04" r="4" fill="#d73027" fill-opacity="0.72" /><circle cx="546.38" cy="350.30" r="4" fill="#d73027" fill-opacity="0.72" /><circle cx="624.39" cy="292.01" r="4" fill="#d73027" fill-opacity="0.72" /><circle cx="594.33" cy="320.78" r="4" fill="#d73027" fill-opacity="0.72" /><circle cx="623.00" cy="250.42" r="4" fill="#d73027" fill-opacity="0.72" /><circle cx="508.41" cy="316.04" r="4" fill="#d73027" fill-opacity="0.72" /><circle cx="667.61" cy="236.80" r="4" fill="#d73027" fill-opacity="0.72" /><circle cx="668.69" cy="293.34" r="4" fill="#d73027" fill-opacity="0.72" /><circle cx="548.41" cy="247.29" r="4" fill="#d73027" fill-opacity="0.72" /><circle cx="760.04" cy="317.39" r="4" fill="#d73027" fill-opacity="0.72" /><circle cx="768.26" cy="328.20" r="4" fill="#d73027" fill-opacity="0.72" /><circle cx="592.22" cy="296.94" r="4" fill="#d73027" fill-opacity="0.72" /><circle cx="640.23" cy="338.10" r="4" fill="#d73027" fill-opacity="0.72" /><circle cx="609.25" cy="303.96" r="4" fill="#d73027" fill-opacity="0.72" /><circle cx="740.76" cy="288.48" r="4" fill="#d73027" fill-opacity="0.72" /><circle cx="716.76" cy="301.95" r="4" fill="#d73027" fill-opacity="0.72" /><circle cx="826.80" cy="313.95" r="4" fill="#d73027" fill-opacity="0.72" /><circle cx="661.57" cy="328.98" r="4" fill="#d73027" fill-opacity="0.72" /><circle cx="750.43" cy="280.73" r="4" fill="#d73027" fill-opacity="0.72" /><circle cx="688.15" cy="316.66" r="4" fill="#d73027" fill-opacity="0.72" /><circle cx="653.17" cy="264.58" r="4" fill="#d73027" fill-opacity="0.72" /><circle cx="485.67" cy="333.21" r="4" fill="#d73027" fill-opacity="0.72" /><circle cx="671.46" cy="356.30" r="4" fill="#d73027" fill-opacity="0.72" /><circle cx="482.50" cy="357.53" r="4" fill="#d73027" fill-opacity="0.72" /><circle cx="623.24" cy="249.42" r="4" fill="#d73027" fill-opacity="0.72" /><circle cx="642.21" cy="289.40" r="4" fill="#d73027" fill-opacity="0.72" /><circle cx="599.68" cy="369.14" r="4" fill="#d73027" fill-opacity="0.72" /><circle cx="521.70" cy="273.07" r="4" fill="#d73027" fill-opacity="0.72" /><circle cx="670.35" cy="294.06" r="4" fill="#d73027" fill-opacity="0.72" /><circle cx="808.94" cy="287.46" r="4" fill="#d73027" fill-opacity="0.72" /><circle cx="717.23" cy="411.78" r="4" fill="#d73027" fill-opacity="0.72" /><circle cx="672.81" cy="420.98" r="4" fill="#d73027" fill-opacity="0.72" /><circle cx="729.00" cy="336.29" r="4" fill="#d73027" fill-opacity="0.72" /><circle cx="642.42" cy="283.58" r="4" fill="#d73027" fill-opacity="0.72" /><circle cx="676.41" cy="347.46" r="4" fill="#d73027" fill-opacity="0.72" /><circle cx="677.07" cy="308.89" r="4" fill="#d73027" fill-opacity="0.72" /><circle cx="607.30" cy="302.63" r="4" fill="#d73027" fill-opacity="0.72" /><circle cx="557.76" cy="329.83" r="4" fill="#d73027" fill-opacity="0.72" /><circle cx="624.28" cy="299.82" r="4" fill="#d73027" fill-opacity="0.72" /><circle cx="547.69" cy="261.07" r="4" fill="#d73027" fill-opacity="0.72" /><circle cx="212.00" cy="203.91" r="4" fill="#1a9850" fill-opacity="0.72" /><circle cx="282.71" cy="260.36" r="4" fill="#1a9850" fill-opacity="0.72" /><circle cx="201.36" cy="287.09" r="4" fill="#1a9850" fill-opacity="0.72" /><circle cx="253.34" cy="232.61" r="4" fill="#1a9850" fill-opacity="0.72" /><circle cx="185.39" cy="296.04" r="4" fill="#1a9850" fill-opacity="0.72" /><circle cx="145.65" cy="285.88" r="4" fill="#1a9850" fill-opacity="0.72" /><circle cx="351.67" cy="283.54" r="4" fill="#1a9850" fill-opacity="0.72" /><circle cx="182.62" cy="336.74" r="4" fill="#1a9850" fill-opacity="0.72" /><circle cx="211.12" cy="342.04" r="4" fill="#1a9850" fill-opacity="0.72" /><circle cx="225.57" cy="245.14" r="4" fill="#1a9850" fill-opacity="0.72" /><circle cx="327.36" cy="193.97" r="4" fill="#1a9850" fill-opacity="0.72" /><circle cx="347.04" cy="189.94" r="4" fill="#1a9850" fill-opacity="0.72" /><circle cx="274.71" cy="255.77" r="4" fill="#1a9850" fill-opacity="0.72" /><circle cx="263.33" cy="295.21" r="4" fill="#1a9850" fill-opacity="0.72" /><circle cx="218.35" cy="298.72" r="4" fill="#1a9850" fill-opacity="0.72" /><circle cx="164.35" cy="336.87" r="4" fill="#1a9850" fill-opacity="0.72" /><circle cx="230.78" cy="169.84" r="4" fill="#1a9850" fill-opacity="0.72" /><circle cx="204.92" cy="264.29" r="4" fill="#1a9850" fill-opacity="0.72" /><circle cx="218.02" cy="295.92" r="4" fill="#1a9850" fill-opacity="0.72" /><circle cx="174.14" cy="254.99" r="4" fill="#1a9850" fill-opacity="0.72" /><circle cx="94.18" cy="342.35" r="4" fill="#1a9850" fill-opacity="0.72" /><circle cx="359.59" cy="270.88" r="4" fill="#1a9850" fill-opacity="0.72" /><circle cx="373.96" cy="223.93" r="4" fill="#1a9850" fill-opacity="0.72" /><circle cx="490.98" cy="184.86" r="4" fill="#1a9850" fill-opacity="0.72" /><circle cx="520.62" cy="154.40" r="4" fill="#1a9850" fill-opacity="0.72" /><circle cx="204.33" cy="327.73" r="4" fill="#1a9850" fill-opacity="0.72" /><circle cx="242.83" cy="325.92" r="4" fill="#1a9850" fill-opacity="0.72" /><circle cx="242.93" cy="287.14" r="4" fill="#1a9850" fill-opacity="0.72" /><circle cx="292.79" cy="250.42" r="4" fill="#1a9850" fill-opacity="0.72" /><circle cx="206.95" cy="236.87" r="4" fill="#1a9850" fill-opacity="0.72" /><circle cx="169.31" cy="303.80" r="4" fill="#1a9850" fill-opacity="0.72" /><circle cx="249.83" cy="244.48" r="4" fill="#1a9850" fill-opacity="0.72" /><circle cx="258.96" cy="232.96" r="4" fill="#1a9850" fill-opacity="0.72" /><circle cx="271.75" cy="214.55" r="4" fill="#1a9850" fill-opacity="0.72" /><circle cx="379.88" cy="295.80" r="4" fill="#1a9850" fill-opacity="0.72" /><circle cx="388.46" cy="309.30" r="4" fill="#1a9850" fill-opacity="0.72" /><circle cx="504.24" cy="291.39" r="4" fill="#1a9850" fill-opacity="0.72" /><circle cx="534.28" cy="340.43" r="4" fill="#1a9850" fill-opacity="0.72" /><circle cx="666.33" cy="211.13" r="4" fill="#1a9850" fill-opacity="0.72" /><circle cx="422.81" cy="273.39" r="4" fill="#1a9850" fill-opacity="0.72" /><circle cx="452.07" cy="336.10" r="4" fill="#1a9850" fill-opacity="0.72" /><circle cx="529.87" cy="296.78" r="4" fill="#1a9850" fill-opacity="0.72" /><circle cx="414.35" cy="321.13" r="4" fill="#1a9850" fill-opacity="0.72" /><circle cx="503.96" cy="271.86" r="4" fill="#1a9850" fill-opacity="0.72" /><circle cx="581.76" cy="277.62" r="4" fill="#1a9850" fill-opacity="0.72" /><circle cx="539.03" cy="282.29" r="4" fill="#1a9850" fill-opacity="0.72" /><circle cx="517.01" cy="361.32" r="4" fill="#1a9850" fill-opacity="0.72" /><circle cx="414.39" cy="302.93" r="4" fill="#1a9850" fill-opacity="0.72" /><circle cx="538.20" cy="224.49" r="4" fill="#1a9850" fill-opacity="0.72" /><circle cx="591.86" cy="319.27" r="4" fill="#1a9850" fill-opacity="0.72" /><circle cx="401.56" cy="252.86" r="4" fill="#1a9850" fill-opacity="0.72" /><circle cx="587.88" cy="307.05" r="4" fill="#1a9850" fill-opacity="0.72" /><circle cx="436.02" cy="209.07" r="4" fill="#1a9850" fill-opacity="0.72" /><circle cx="505.56" cy="271.90" r="4" fill="#1a9850" fill-opacity="0.72" /><circle cx="530.59" cy="338.95" r="4" fill="#1a9850" fill-opacity="0.72" /><circle cx="484.51" cy="307.75" r="4" fill="#1a9850" fill-opacity="0.72" /><circle cx="583.53" cy="295.09" r="4" fill="#1a9850" fill-opacity="0.72" /><circle cx="536.01" cy="291.68" r="4" fill="#1a9850" fill-opacity="0.72" /><circle cx="309.80" cy="315.52" r="4" fill="#1a9850" fill-opacity="0.72" /><circle cx="341.78" cy="284.54" r="4" fill="#1a9850" fill-opacity="0.72" /><circle cx="443.66" cy="231.50" r="4" fill="#1a9850" fill-opacity="0.72" /><circle cx="555.74" cy="112.05" r="4" fill="#1a9850" fill-opacity="0.72" /><circle cx="343.62" cy="242.62" r="4" fill="#1a9850" fill-opacity="0.72" /><circle cx="431.26" cy="286.87" r="4" fill="#1a9850" fill-opacity="0.72" /><circle cx="463.34" cy="187.58" r="4" fill="#1a9850" fill-opacity="0.72" /><circle cx="562.84" cy="119.68" r="4" fill="#1a9850" fill-opacity="0.72" /><circle cx="484.15" cy="288.74" r="4" fill="#1a9850" fill-opacity="0.72" /><circle cx="524.91" cy="182.59" r="4" fill="#1a9850" fill-opacity="0.72" /><circle cx="479.69" cy="279.83" r="4" fill="#1a9850" fill-opacity="0.72" /><circle cx="573.96" cy="216.84" r="4" fill="#1a9850" fill-opacity="0.72" /><circle cx="521.83" cy="299.18" r="4" fill="#1a9850" fill-opacity="0.72" /><circle cx="630.45" cy="242.97" r="4" fill="#1a9850" fill-opacity="0.72" /><circle cx="628.56" cy="273.81" r="4" fill="#1a9850" fill-opacity="0.72" /><circle cx="379.82" cy="263.88" r="4" fill="#1a9850" fill-opacity="0.72" /><circle cx="459.94" cy="287.93" r="4" fill="#1a9850" fill-opacity="0.72" /><circle cx="372.42" cy="286.54" r="4" fill="#1a9850" fill-opacity="0.72" /><circle cx="386.90" cy="284.89" r="4" fill="#1a9850" fill-opacity="0.72" /><circle cx="368.45" cy="301.30" r="4" fill="#1a9850" fill-opacity="0.72" /><circle cx="590.46" cy="178.93" r="4" fill="#1a9850" fill-opacity="0.72" /><circle cx="352.20" cy="330.22" r="4" fill="#1a9850" fill-opacity="0.72" /><circle cx="366.28" cy="253.55" r="4" fill="#762a83" fill-opacity="0.72" /><circle cx="233.39" cy="328.83" r="4" fill="#762a83" fill-opacity="0.72" /><circle cx="223.25" cy="255.48" r="4" fill="#762a83" fill-opacity="0.72" /><circle cx="283.61" cy="339.16" r="4" fill="#762a83" fill-opacity="0.72" /><circle cx="326.30" cy="423.38" r="4" fill="#762a83" fill-opacity="0.72" /><circle cx="389.76" cy="225.09" r="4" fill="#762a83" fill-opacity="0.72" /><circle cx="221.03" cy="399.26" r="4" fill="#762a83" fill-opacity="0.72" /><circle cx="346.97" cy="272.13" r="4" fill="#762a83" fill-opacity="0.72" /><circle cx="385.81" cy="201.30" r="4" fill="#762a83" fill-opacity="0.72" /><circle cx="373.79" cy="418.01" r="4" fill="#762a83" fill-opacity="0.72" /><circle cx="347.14" cy="365.18" r="4" fill="#762a83" fill-opacity="0.72" /><circle cx="307.41" cy="399.44" r="4" fill="#762a83" fill-opacity="0.72" /><circle cx="386.16" cy="339.76" r="4" fill="#762a83" fill-opacity="0.72" /><circle cx="419.27" cy="324.89" r="4" fill="#762a83" fill-opacity="0.72" /><circle cx="241.37" cy="323.75" r="4" fill="#762a83" fill-opacity="0.72" /><circle cx="292.58" cy="329.19" r="4" fill="#762a83" fill-opacity="0.72" /><circle cx="264.73" cy="321.77" r="4" fill="#762a83" fill-opacity="0.72" /><circle cx="321.78" cy="235.80" r="4" fill="#762a83" fill-opacity="0.72" /><circle cx="252.76" cy="335.20" r="4" fill="#762a83" fill-opacity="0.72" /><circle cx="227.71" cy="303.39" r="4" fill="#762a83" fill-opacity="0.72" /><circle cx="409.23" cy="305.36" r="4" fill="#762a83" fill-opacity="0.72" /><circle cx="250.25" cy="274.26" r="4" fill="#762a83" fill-opacity="0.72" /><circle cx="236.02" cy="400.74" r="4" fill="#762a83" fill-opacity="0.72" /><circle cx="297.36" cy="376.71" r="4" fill="#762a83" fill-opacity="0.72" /><circle cx="326.52" cy="241.32" r="4" fill="#762a83" fill-opacity="0.72" /><circle cx="245.43" cy="351.25" r="4" fill="#762a83" fill-opacity="0.72" /><circle cx="168.06" cy="357.32" r="4" fill="#762a83" fill-opacity="0.72" /><circle cx="300.23" cy="344.19" r="4" fill="#762a83" fill-opacity="0.72" /><circle cx="220.62" cy="370.98" r="4" fill="#762a83" fill-opacity="0.72" /><circle cx="177.75" cy="407.24" r="4" fill="#762a83" fill-opacity="0.72" /><circle cx="466.71" cy="189.83" r="4" fill="#762a83" fill-opacity="0.72" /><circle cx="472.92" cy="198.16" r="4" fill="#762a83" fill-opacity="0.72" /><circle cx="345.04" cy="395.29" r="4" fill="#762a83" fill-opacity="0.72" /><circle cx="275.34" cy="341.63" r="4" fill="#762a83" fill-opacity="0.72" /><circle cx="405.69" cy="279.05" r="4" fill="#762a83" fill-opacity="0.72" /><circle cx="271.75" cy="331.84" r="4" fill="#762a83" fill-opacity="0.72" /><circle cx="330.20" cy="265.88" r="4" fill="#762a83" fill-opacity="0.72" /><circle cx="330.59" cy="365.29" r="4" fill="#762a83" fill-opacity="0.72" /><circle cx="267.18" cy="375.98" r="4" fill="#762a83" fill-opacity="0.72" /><circle cx="270.97" cy="394.08" r="4" fill="#762a83" fill-opacity="0.72" /><circle cx="530.60" cy="342.06" r="4" fill="#762a83" fill-opacity="0.72" /><circle cx="758.15" cy="387.37" r="4" fill="#762a83" fill-opacity="0.72" /><circle cx="733.40" cy="375.37" r="4" fill="#762a83" fill-opacity="0.72" /><circle cx="508.83" cy="353.41" r="4" fill="#762a83" fill-opacity="0.72" /><circle cx="506.53" cy="421.38" r="4" fill="#762a83" fill-opacity="0.72" /><circle cx="486.05" cy="408.18" r="4" fill="#762a83" fill-opacity="0.72" /><circle cx="813.07" cy="340.57" r="4" fill="#762a83" fill-opacity="0.72" /><circle cx="578.56" cy="160.21" r="4" fill="#762a83" fill-opacity="0.72" /><circle cx="699.22" cy="441.27" r="4" fill="#762a83" fill-opacity="0.72" /><circle cx="614.70" cy="363.82" r="4" fill="#762a83" fill-opacity="0.72" /><circle cx="403.69" cy="384.16" r="4" fill="#762a83" fill-opacity="0.72" /><circle cx="696.47" cy="411.55" r="4" fill="#762a83" fill-opacity="0.72" /><circle cx="484.17" cy="320.01" r="4" fill="#762a83" fill-opacity="0.72" /><circle cx="705.66" cy="333.65" r="4" fill="#762a83" fill-opacity="0.72" /><circle cx="717.62" cy="356.66" r="4" fill="#762a83" fill-opacity="0.72" /><circle cx="480.34" cy="421.76" r="4" fill="#762a83" fill-opacity="0.72" /><circle cx="562.64" cy="415.52" r="4" fill="#762a83" fill-opacity="0.72" /><circle cx="549.63" cy="420.04" r="4" fill="#762a83" fill-opacity="0.72" /><circle cx="666.25" cy="265.27" r="4" fill="#762a83" fill-opacity="0.72" /><circle cx="616.81" cy="275.31" r="4" fill="#762a83" fill-opacity="0.72" /><circle cx="408.24" cy="463.16" r="4" fill="#762a83" fill-opacity="0.72" /><circle cx="481.31" cy="340.22" r="4" fill="#762a83" fill-opacity="0.72" /><circle cx="622.54" cy="410.49" r="4" fill="#762a83" fill-opacity="0.72" /><circle cx="545.44" cy="465.11" r="4" fill="#762a83" fill-opacity="0.72" /><circle cx="549.09" cy="305.71" r="4" fill="#762a83" fill-opacity="0.72" /><circle cx="538.63" cy="297.60" r="4" fill="#762a83" fill-opacity="0.72" /><circle cx="548.05" cy="377.57" r="4" fill="#762a83" fill-opacity="0.72" /><circle cx="580.20" cy="435.73" r="4" fill="#762a83" fill-opacity="0.72" /><circle cx="681.96" cy="457.34" r="4" fill="#762a83" fill-opacity="0.72" /><circle cx="634.92" cy="398.74" r="4" fill="#762a83" fill-opacity="0.72" /><circle cx="522.00" cy="334.31" r="4" fill="#762a83" fill-opacity="0.72" /><circle cx="647.30" cy="361.13" r="4" fill="#762a83" fill-opacity="0.72" /><circle cx="622.09" cy="350.53" r="4" fill="#762a83" fill-opacity="0.72" /><circle cx="701.05" cy="323.09" r="4" fill="#762a83" fill-opacity="0.72" /><circle cx="689.98" cy="345.27" r="4" fill="#762a83" fill-opacity="0.72" /><circle cx="692.79" cy="334.65" r="4" fill="#762a83" fill-opacity="0.72" /><circle cx="536.92" cy="450.66" r="4" fill="#762a83" fill-opacity="0.72" /><circle cx="593.57" cy="446.77" r="4" fill="#762a83" fill-opacity="0.72" /><circle cx="475.09" cy="422.69" r="4" fill="#762a83" fill-opacity="0.72" /><circle cx="726.00" cy="340.36" r="4" fill="#762a83" fill-opacity="0.72" /><circle cx="172.19" cy="345.58" r="4" fill="#fdae61" fill-opacity="0.72" /><circle cx="351.70" cy="234.13" r="4" fill="#fdae61" fill-opacity="0.72" /><circle cx="247.98" cy="284.53" r="4" fill="#fdae61" fill-opacity="0.72" /><circle cx="291.28" cy="345.25" r="4" fill="#fdae61" fill-opacity="0.72" /><circle cx="409.83" cy="326.95" r="4" fill="#fdae61" fill-opacity="0.72" /><circle cx="452.78" cy="320.61" r="4" fill="#fdae61" fill-opacity="0.72" /><circle cx="251.01" cy="382.87" r="4" fill="#fdae61" fill-opacity="0.72" /><circle cx="187.21" cy="347.64" r="4" fill="#fdae61" fill-opacity="0.72" /><circle cx="275.73" cy="276.68" r="4" fill="#fdae61" fill-opacity="0.72" /><circle cx="217.70" cy="344.89" r="4" fill="#fdae61" fill-opacity="0.72" /><circle cx="460.17" cy="294.69" r="4" fill="#fdae61" fill-opacity="0.72" /><circle cx="417.62" cy="294.46" r="4" fill="#fdae61" fill-opacity="0.72" /><circle cx="341.16" cy="201.71" r="4" fill="#fdae61" fill-opacity="0.72" /><circle cx="297.54" cy="296.92" r="4" fill="#fdae61" fill-opacity="0.72" /><circle cx="333.65" cy="323.37" r="4" fill="#fdae61" fill-opacity="0.72" /><circle cx="340.70" cy="308.78" r="4" fill="#fdae61" fill-opacity="0.72" /><circle cx="267.57" cy="352.78" r="4" fill="#fdae61" fill-opacity="0.72" /><circle cx="358.41" cy="340.55" r="4" fill="#fdae61" fill-opacity="0.72" /><circle cx="344.82" cy="294.91" r="4" fill="#fdae61" fill-opacity="0.72" /><circle cx="290.48" cy="301.34" r="4" fill="#fdae61" fill-opacity="0.72" /><circle cx="266.39" cy="370.46" r="4" fill="#fdae61" fill-opacity="0.72" /><circle cx="229.79" cy="334.01" r="4" fill="#fdae61" fill-opacity="0.72" /><circle cx="269.06" cy="379.10" r="4" fill="#fdae61" fill-opacity="0.72" /><circle cx="268.63" cy="319.66" r="4" fill="#fdae61" fill-opacity="0.72" /><circle cx="275.77" cy="317.17" r="4" fill="#fdae61" fill-opacity="0.72" /><circle cx="171.34" cy="330.46" r="4" fill="#fdae61" fill-opacity="0.72" /><circle cx="253.79" cy="294.30" r="4" fill="#fdae61" fill-opacity="0.72" /><circle cx="302.72" cy="269.79" r="4" fill="#fdae61" fill-opacity="0.72" /><circle cx="226.23" cy="386.05" r="4" fill="#fdae61" fill-opacity="0.72" /><circle cx="292.60" cy="357.81" r="4" fill="#fdae61" fill-opacity="0.72" /><circle cx="466.89" cy="258.22" r="4" fill="#fdae61" fill-opacity="0.72" /><circle cx="395.23" cy="222.87" r="4" fill="#fdae61" fill-opacity="0.72" /><circle cx="479.55" cy="287.71" r="4" fill="#fdae61" fill-opacity="0.72" /><circle cx="393.03" cy="217.28" r="4" fill="#fdae61" fill-opacity="0.72" /><circle cx="479.86" cy="217.20" r="4" fill="#fdae61" fill-opacity="0.72" /><circle cx="435.37" cy="248.39" r="4" fill="#fdae61" fill-opacity="0.72" /><circle cx="504.46" cy="264.95" r="4" fill="#fdae61" fill-opacity="0.72" /><circle cx="358.22" cy="274.73" r="4" fill="#fdae61" fill-opacity="0.72" /><circle cx="427.77" cy="274.74" r="4" fill="#fdae61" fill-opacity="0.72" /><circle cx="288.22" cy="288.89" r="4" fill="#fdae61" fill-opacity="0.72" /><circle cx="335.18" cy="247.93" r="4" fill="#fdae61" fill-opacity="0.72" /><circle cx="250.17" cy="309.37" r="4" fill="#fdae61" fill-opacity="0.72" /><circle cx="203.96" cy="319.93" r="4" fill="#fdae61" fill-opacity="0.72" /><circle cx="319.47" cy="217.63" r="4" fill="#fdae61" fill-opacity="0.72" /><circle cx="406.90" cy="297.82" r="4" fill="#fdae61" fill-opacity="0.72" /><circle cx="329.38" cy="302.95" r="4" fill="#fdae61" fill-opacity="0.72" /><circle cx="513.59" cy="470.28" r="4" fill="#fdae61" fill-opacity="0.72" /><circle cx="480.30" cy="386.10" r="4" fill="#fdae61" fill-opacity="0.72" /><circle cx="596.81" cy="433.00" r="4" fill="#fdae61" fill-opacity="0.72" /><circle cx="704.05" cy="366.34" r="4" fill="#fdae61" fill-opacity="0.72" /><circle cx="613.01" cy="354.48" r="4" fill="#fdae61" fill-opacity="0.72" /><circle cx="648.44" cy="286.15" r="4" fill="#fdae61" fill-opacity="0.72" /><circle cx="592.00" cy="428.74" r="4" fill="#fdae61" fill-opacity="0.72" /><circle cx="615.76" cy="415.23" r="4" fill="#fdae61" fill-opacity="0.72" /><circle cx="530.08" cy="383.17" r="4" fill="#fdae61" fill-opacity="0.72" /><circle cx="558.71" cy="319.74" r="4" fill="#fdae61" fill-opacity="0.72" /><circle cx="664.25" cy="354.96" r="4" fill="#fdae61" fill-opacity="0.72" /><circle cx="629.98" cy="428.01" r="4" fill="#fdae61" fill-opacity="0.72" /><circle cx="484.82" cy="475.41" r="4" fill="#fdae61" fill-opacity="0.72" /><circle cx="439.87" cy="442.52" r="4" fill="#fdae61" fill-opacity="0.72" /><circle cx="647.17" cy="459.04" r="4" fill="#fdae61" fill-opacity="0.72" /><circle cx="486.04" cy="361.62" r="4" fill="#fdae61" fill-opacity="0.72" /><circle cx="556.85" cy="348.13" r="4" fill="#fdae61" fill-opacity="0.72" /><circle cx="577.32" cy="401.89" r="4" fill="#fdae61" fill-opacity="0.72" /><circle cx="507.12" cy="432.28" r="4" fill="#fdae61" fill-opacity="0.72" /><circle cx="491.70" cy="398.22" r="4" fill="#fdae61" fill-opacity="0.72" /><circle cx="610.66" cy="276.06" r="4" fill="#fdae61" fill-opacity="0.72" /><circle cx="443.96" cy="570.00" r="4" fill="#fdae61" fill-opacity="0.72" /><circle cx="482.74" cy="416.18" r="4" fill="#fdae61" fill-opacity="0.72" /><circle cx="425.47" cy="479.50" r="4" fill="#fdae61" fill-opacity="0.72" /><circle cx="490.51" cy="395.61" r="4" fill="#fdae61" fill-opacity="0.72" /><circle cx="718.77" cy="339.89" r="4" fill="#fdae61" fill-opacity="0.72" /><circle cx="598.66" cy="413.82" r="4" fill="#fdae61" fill-opacity="0.72" /><circle cx="453.64" cy="437.52" r="4" fill="#fdae61" fill-opacity="0.72" /><circle cx="657.39" cy="383.90" r="4" fill="#fdae61" fill-opacity="0.72" /><circle cx="504.29" cy="314.61" r="4" fill="#fdae61" fill-opacity="0.72" /><circle cx="622.38" cy="352.20" r="4" fill="#fdae61" fill-opacity="0.72" /><circle cx="486.51" cy="410.15" r="4" fill="#fdae61" fill-opacity="0.72" /><circle cx="649.67" cy="366.55" r="4" fill="#fdae61" fill-opacity="0.72" /><circle cx="364.98" cy="457.91" r="4" fill="#fdae61" fill-opacity="0.72" /><circle cx="143.26" cy="429.73" r="4" fill="#4575b4" fill-opacity="0.72" /><circle cx="107.51" cy="342.87" r="4" fill="#4575b4" fill-opacity="0.72" /><circle cx="136.78" cy="304.68" r="4" fill="#4575b4" fill-opacity="0.72" /><circle cx="70.00" cy="446.22" r="4" fill="#4575b4" fill-opacity="0.72" /><circle cx="240.04" cy="336.56" r="4" fill="#4575b4" fill-opacity="0.72" /><circle cx="334.55" cy="320.59" r="4" fill="#4575b4" fill-opacity="0.72" /><circle cx="198.13" cy="302.23" r="4" fill="#4575b4" fill-opacity="0.72" /><circle cx="180.40" cy="342.81" r="4" fill="#4575b4" fill-opacity="0.72" /><circle cx="198.48" cy="337.30" r="4" fill="#4575b4" fill-opacity="0.72" /><circle cx="191.32" cy="408.01" r="4" fill="#4575b4" fill-opacity="0.72" /><circle cx="156.78" cy="340.92" r="4" fill="#4575b4" fill-opacity="0.72" /><circle cx="323.76" cy="381.56" r="4" fill="#4575b4" fill-opacity="0.72" /><circle cx="164.28" cy="336.28" r="4" fill="#4575b4" fill-opacity="0.72" /><circle cx="360.79" cy="194.77" r="4" fill="#4575b4" fill-opacity="0.72" /><circle cx="277.49" cy="337.06" r="4" fill="#4575b4" fill-opacity="0.72" /><circle cx="214.56" cy="380.80" r="4" fill="#4575b4" fill-opacity="0.72" /><circle cx="221.04" cy="398.66" r="4" fill="#4575b4" fill-opacity="0.72" /><circle cx="111.05" cy="419.44" r="4" fill="#4575b4" fill-opacity="0.72" /><circle cx="195.54" cy="324.94" r="4" fill="#4575b4" fill-opacity="0.72" /><circle cx="127.81" cy="324.62" r="4" fill="#4575b4" fill-opacity="0.72" /><circle cx="91.13" cy="384.18" r="4" fill="#4575b4" fill-opacity="0.72" /><circle cx="81.96" cy="331.18" r="4" fill="#4575b4" fill-opacity="0.72" /><circle cx="131.61" cy="416.61" r="4" fill="#4575b4" fill-opacity="0.72" /><circle cx="263.68" cy="323.48" r="4" fill="#4575b4" fill-opacity="0.72" /><circle cx="163.13" cy="334.41" r="4" fill="#4575b4" fill-opacity="0.72" /><circle cx="245.70" cy="340.95" r="4" fill="#4575b4" fill-opacity="0.72" /><circle cx="128.89" cy="361.76" r="4" fill="#4575b4" fill-opacity="0.72" /><circle cx="260.82" cy="249.84" r="4" fill="#4575b4" fill-opacity="0.72" /><circle cx="238.07" cy="260.57" r="4" fill="#4575b4" fill-opacity="0.72" /><circle cx="131.71" cy="333.48" r="4" fill="#4575b4" fill-opacity="0.72" /><circle cx="266.56" cy="295.21" r="4" fill="#4575b4" fill-opacity="0.72" /><circle cx="347.68" cy="267.11" r="4" fill="#4575b4" fill-opacity="0.72" /><circle cx="273.04" cy="312.42" r="4" fill="#4575b4" fill-opacity="0.72" /><circle cx="249.07" cy="387.91" r="4" fill="#4575b4" fill-opacity="0.72" /><circle cx="308.18" cy="253.36" r="4" fill="#4575b4" fill-opacity="0.72" /><circle cx="149.96" cy="316.74" r="4" fill="#4575b4" fill-opacity="0.72" /><circle cx="128.23" cy="347.19" r="4" fill="#4575b4" fill-opacity="0.72" /><circle cx="203.00" cy="321.98" r="4" fill="#4575b4" fill-opacity="0.72" /><circle cx="161.82" cy="330.57" r="4" fill="#4575b4" fill-opacity="0.72" /><circle cx="185.92" cy="357.69" r="4" fill="#4575b4" fill-opacity="0.72" /><circle cx="231.46" cy="269.61" r="4" fill="#4575b4" fill-opacity="0.72" /><circle cx="298.10" cy="259.53" r="4" fill="#4575b4" fill-opacity="0.72" /><circle cx="375.25" cy="327.23" r="4" fill="#4575b4" fill-opacity="0.72" /><circle cx="422.89" cy="321.81" r="4" fill="#4575b4" fill-opacity="0.72" /><circle cx="411.37" cy="292.34" r="4" fill="#4575b4" fill-opacity="0.72" /><circle cx="373.95" cy="249.04" r="4" fill="#4575b4" fill-opacity="0.72" /><circle cx="411.83" cy="325.16" r="4" fill="#4575b4" fill-opacity="0.72" /><circle cx="372.94" cy="331.55" r="4" fill="#4575b4" fill-opacity="0.72" /><circle cx="413.89" cy="309.94" r="4" fill="#4575b4" fill-opacity="0.72" /><circle cx="285.15" cy="337.35" r="4" fill="#4575b4" fill-opacity="0.72" /><circle cx="509.06" cy="298.04" r="4" fill="#4575b4" fill-opacity="0.72" /><circle cx="345.59" cy="284.46" r="4" fill="#4575b4" fill-opacity="0.72" /><circle cx="447.47" cy="257.55" r="4" fill="#4575b4" fill-opacity="0.72" /><circle cx="456.82" cy="378.79" r="4" fill="#4575b4" fill-opacity="0.72" /><circle cx="341.89" cy="337.64" r="4" fill="#4575b4" fill-opacity="0.72" /><circle cx="421.74" cy="193.51" r="4" fill="#4575b4" fill-opacity="0.72" /><circle cx="308.28" cy="280.62" r="4" fill="#4575b4" fill-opacity="0.72" /><circle cx="194.97" cy="276.74" r="4" fill="#4575b4" fill-opacity="0.72" /><circle cx="301.82" cy="392.73" r="4" fill="#4575b4" fill-opacity="0.72" /><circle cx="334.71" cy="288.47" r="4" fill="#4575b4" fill-opacity="0.72" /><circle cx="438.80" cy="260.99" r="4" fill="#4575b4" fill-opacity="0.72" /><circle cx="404.24" cy="270.64" r="4" fill="#4575b4" fill-opacity="0.72" /><circle cx="392.54" cy="286.34" r="4" fill="#4575b4" fill-opacity="0.72" /><circle cx="372.94" cy="337.71" r="4" fill="#4575b4" fill-opacity="0.72" /><circle cx="473.55" cy="142.78" r="4" fill="#4575b4" fill-opacity="0.72" /><circle cx="360.66" cy="297.83" r="4" fill="#4575b4" fill-opacity="0.72" /><circle cx="232.42" cy="386.76" r="4" fill="#4575b4" fill-opacity="0.72" /><circle cx="261.90" cy="330.74" r="4" fill="#4575b4" fill-opacity="0.72" /><circle cx="292.44" cy="323.00" r="4" fill="#4575b4" fill-opacity="0.72" /><circle cx="325.27" cy="350.28" r="4" fill="#4575b4" fill-opacity="0.72" /><circle cx="425.87" cy="255.03" r="4" fill="#4575b4" fill-opacity="0.72" /><circle cx="464.39" cy="368.23" r="4" fill="#4575b4" fill-opacity="0.72" /><circle cx="423.11" cy="332.20" r="4" fill="#4575b4" fill-opacity="0.72" /><circle cx="353.85" cy="349.77" r="4" fill="#4575b4" fill-opacity="0.72" /><circle cx="440.31" cy="269.52" r="4" fill="#4575b4" fill-opacity="0.72" /><circle cx="232.96" cy="310.28" r="4" fill="#4575b4" fill-opacity="0.72" /><circle cx="372.55" cy="230.45" r="4" fill="#4575b4" fill-opacity="0.72" /><circle cx="201.97" cy="276.77" r="4" fill="#4575b4" fill-opacity="0.72" /><circle cx="400.19" cy="285.71" r="4" fill="#4575b4" fill-opacity="0.72" /><circle cx="474.85" cy="270.10" r="4" fill="#4575b4" fill-opacity="0.72" /><circle cx="234.56" cy="313.10" r="4" fill="#66c2a5" fill-opacity="0.72" /><circle cx="335.26" cy="222.65" r="4" fill="#66c2a5" fill-opacity="0.72" /><circle cx="285.42" cy="290.81" r="4" fill="#66c2a5" fill-opacity="0.72" /><circle cx="206.91" cy="447.13" r="4" fill="#66c2a5" fill-opacity="0.72" /><circle cx="136.92" cy="338.07" r="4" fill="#66c2a5" fill-opacity="0.72" /><circle cx="335.59" cy="285.70" r="4" fill="#66c2a5" fill-opacity="0.72" /><circle cx="412.42" cy="236.69" r="4" fill="#66c2a5" fill-opacity="0.72" /><circle cx="210.98" cy="285.51" r="4" fill="#66c2a5" fill-opacity="0.72" /><circle cx="282.93" cy="350.21" r="4" fill="#66c2a5" fill-opacity="0.72" /><circle cx="281.53" cy="326.06" r="4" fill="#66c2a5" fill-opacity="0.72" /><circle cx="153.48" cy="423.66" r="4" fill="#66c2a5" fill-opacity="0.72" /><circle cx="231.12" cy="291.43" r="4" fill="#66c2a5" fill-opacity="0.72" /><circle cx="325.66" cy="313.20" r="4" fill="#66c2a5" fill-opacity="0.72" /><circle cx="299.04" cy="336.92" r="4" fill="#66c2a5" fill-opacity="0.72" /><circle cx="433.29" cy="328.05" r="4" fill="#66c2a5" fill-opacity="0.72" /><circle cx="391.96" cy="285.63" r="4" fill="#66c2a5" fill-opacity="0.72" /><circle cx="371.69" cy="211.09" r="4" fill="#66c2a5" fill-opacity="0.72" /><circle cx="173.20" cy="313.44" r="4" fill="#66c2a5" fill-opacity="0.72" /><circle cx="209.09" cy="340.79" r="4" fill="#66c2a5" fill-opacity="0.72" /><circle cx="285.03" cy="298.59" r="4" fill="#66c2a5" fill-opacity="0.72" /><circle cx="318.83" cy="238.53" r="4" fill="#66c2a5" fill-opacity="0.72" /><circle cx="247.89" cy="310.26" r="4" fill="#66c2a5" fill-opacity="0.72" /><circle cx="254.27" cy="338.89" r="4" fill="#66c2a5" fill-opacity="0.72" /><circle cx="136.49" cy="378.33" r="4" fill="#66c2a5" fill-opacity="0.72" /><circle cx="225.77" cy="266.81" r="4" fill="#66c2a5" fill-opacity="0.72" /><circle cx="252.52" cy="394.67" r="4" fill="#66c2a5" fill-opacity="0.72" /><circle cx="234.84" cy="262.69" r="4" fill="#66c2a5" fill-opacity="0.72" /><circle cx="407.59" cy="281.51" r="4" fill="#66c2a5" fill-opacity="0.72" /><circle cx="429.78" cy="238.49" r="4" fill="#66c2a5" fill-opacity="0.72" /><circle cx="329.70" cy="252.25" r="4" fill="#66c2a5" fill-opacity="0.72" /><circle cx="392.91" cy="259.14" r="4" fill="#66c2a5" fill-opacity="0.72" /><circle cx="368.52" cy="241.31" r="4" fill="#66c2a5" fill-opacity="0.72" /><circle cx="224.08" cy="271.66" r="4" fill="#66c2a5" fill-opacity="0.72" /><circle cx="268.36" cy="353.60" r="4" fill="#66c2a5" fill-opacity="0.72" /><circle cx="371.83" cy="292.13" r="4" fill="#66c2a5" fill-opacity="0.72" /><circle cx="270.05" cy="338.91" r="4" fill="#66c2a5" fill-opacity="0.72" /><circle cx="479.65" cy="302.92" r="4" fill="#66c2a5" fill-opacity="0.72" /><circle cx="714.22" cy="298.22" r="4" fill="#66c2a5" fill-opacity="0.72" /><circle cx="591.72" cy="335.97" r="4" fill="#66c2a5" fill-opacity="0.72" /><circle cx="600.83" cy="283.77" r="4" fill="#66c2a5" fill-opacity="0.72" /><circle cx="788.70" cy="275.92" r="4" fill="#66c2a5" fill-opacity="0.72" /><circle cx="731.80" cy="351.98" r="4" fill="#66c2a5" fill-opacity="0.72" /><circle cx="697.68" cy="302.64" r="4" fill="#66c2a5" fill-opacity="0.72" /><circle cx="800.77" cy="356.48" r="4" fill="#66c2a5" fill-opacity="0.72" /><circle cx="759.77" cy="311.30" r="4" fill="#66c2a5" fill-opacity="0.72" /><circle cx="608.31" cy="286.22" r="4" fill="#66c2a5" fill-opacity="0.72" /><circle cx="604.27" cy="350.86" r="4" fill="#66c2a5" fill-opacity="0.72" /><circle cx="669.47" cy="373.31" r="4" fill="#66c2a5" fill-opacity="0.72" /><circle cx="433.83" cy="388.75" r="4" fill="#66c2a5" fill-opacity="0.72" /><circle cx="508.99" cy="241.20" r="4" fill="#66c2a5" fill-opacity="0.72" /><circle cx="617.46" cy="340.56" r="4" fill="#66c2a5" fill-opacity="0.72" /><circle cx="601.36" cy="282.65" r="4" fill="#66c2a5" fill-opacity="0.72" /><circle cx="656.45" cy="275.24" r="4" fill="#66c2a5" fill-opacity="0.72" /><circle cx="573.27" cy="422.60" r="4" fill="#66c2a5" fill-opacity="0.72" /><circle cx="442.39" cy="463.60" r="4" fill="#66c2a5" fill-opacity="0.72" /><circle cx="805.14" cy="304.57" r="4" fill="#66c2a5" fill-opacity="0.72" /><circle cx="525.10" cy="334.88" r="4" fill="#66c2a5" fill-opacity="0.72" /><circle cx="451.42" cy="386.17" r="4" fill="#66c2a5" fill-opacity="0.72" /><circle cx="534.88" cy="185.63" r="4" fill="#66c2a5" fill-opacity="0.72" /><circle cx="554.66" cy="275.80" r="4" fill="#66c2a5" fill-opacity="0.72" /><circle cx="374.76" cy="313.82" r="4" fill="#66c2a5" fill-opacity="0.72" /><circle cx="345.57" cy="375.96" r="4" fill="#66c2a5" fill-opacity="0.72" /><circle cx="667.02" cy="175.99" r="4" fill="#66c2a5" fill-opacity="0.72" /><circle cx="602.24" cy="390.68" r="4" fill="#66c2a5" fill-opacity="0.72" /><circle cx="542.31" cy="395.88" r="4" fill="#66c2a5" fill-opacity="0.72" /><circle cx="504.57" cy="292.28" r="4" fill="#66c2a5" fill-opacity="0.72" /><circle cx="652.25" cy="268.89" r="4" fill="#66c2a5" fill-opacity="0.72" /><circle cx="754.03" cy="262.77" r="4" fill="#66c2a5" fill-opacity="0.72" /><circle cx="732.38" cy="398.31" r="4" fill="#66c2a5" fill-opacity="0.72" /><circle cx="729.83" cy="306.51" r="4" fill="#66c2a5" fill-opacity="0.72" /><circle cx="655.07" cy="207.95" r="4" fill="#66c2a5" fill-opacity="0.72" /><circle cx="680.63" cy="257.82" r="4" fill="#66c2a5" fill-opacity="0.72" /><circle cx="669.52" cy="356.45" r="4" fill="#66c2a5" fill-opacity="0.72" /><circle cx="569.23" cy="229.41" r="4" fill="#66c2a5" fill-opacity="0.72" /><circle cx="830.00" cy="372.66" r="4" fill="#66c2a5" fill-opacity="0.72" /><circle cx="639.49" cy="336.13" r="4" fill="#66c2a5" fill-opacity="0.72" /><circle cx="544.54" cy="307.15" r="4" fill="#66c2a5" fill-opacity="0.72" /><circle cx="409.02" cy="276.60" r="4" fill="#66c2a5" fill-opacity="0.72" /><circle cx="607.46" cy="306.60" r="4" fill="#66c2a5" fill-opacity="0.72" /><circle cx="570.99" cy="348.42" r="4" fill="#66c2a5" fill-opacity="0.72" /><circle cx="169.67" cy="270.74" r="4" fill="#313695" fill-opacity="0.72" /><circle cx="130.68" cy="260.14" r="4" fill="#313695" fill-opacity="0.72" /><circle cx="128.83" cy="299.84" r="4" fill="#313695" fill-opacity="0.72" /><circle cx="126.57" cy="362.91" r="4" fill="#313695" fill-opacity="0.72" /><circle cx="145.42" cy="258.22" r="4" fill="#313695" fill-opacity="0.72" /><circle cx="230.95" cy="305.82" r="4" fill="#313695" fill-opacity="0.72" /><circle cx="121.82" cy="352.72" r="4" fill="#313695" fill-opacity="0.72" /><circle cx="253.07" cy="229.18" r="4" fill="#313695" fill-opacity="0.72" /><circle cx="360.73" cy="150.63" r="4" fill="#313695" fill-opacity="0.72" /><circle cx="317.52" cy="156.31" r="4" fill="#313695" fill-opacity="0.72" /><circle cx="190.98" cy="212.71" r="4" fill="#313695" fill-opacity="0.72" /><circle cx="211.92" cy="334.53" r="4" fill="#313695" fill-opacity="0.72" /><circle cx="263.65" cy="326.81" r="4" fill="#313695" fill-opacity="0.72" /><circle cx="72.94" cy="402.86" r="4" fill="#313695" fill-opacity="0.72" /><circle cx="149.37" cy="285.07" r="4" fill="#313695" fill-opacity="0.72" /><circle cx="82.86" cy="367.56" r="4" fill="#313695" fill-opacity="0.72" /><circle cx="113.94" cy="299.53" r="4" fill="#313695" fill-opacity="0.72" /><circle cx="165.72" cy="252.29" r="4" fill="#313695" fill-opacity="0.72" /><circle cx="128.51" cy="310.53" r="4" fill="#313695" fill-opacity="0.72" /><circle cx="297.88" cy="213.27" r="4" fill="#313695" fill-opacity="0.72" /><circle cx="145.55" cy="376.80" r="4" fill="#313695" fill-opacity="0.72" /><circle cx="121.07" cy="285.19" r="4" fill="#313695" fill-opacity="0.72" /><circle cx="191.87" cy="313.93" r="4" fill="#313695" fill-opacity="0.72" /><circle cx="240.44" cy="239.75" r="4" fill="#313695" fill-opacity="0.72" /><circle cx="256.01" cy="264.15" r="4" fill="#313695" fill-opacity="0.72" /><circle cx="315.95" cy="227.00" r="4" fill="#313695" fill-opacity="0.72" /><circle cx="376.39" cy="204.11" r="4" fill="#313695" fill-opacity="0.72" /><circle cx="314.63" cy="130.29" r="4" fill="#313695" fill-opacity="0.72" /><circle cx="256.51" cy="208.61" r="4" fill="#313695" fill-opacity="0.72" /><circle cx="268.47" cy="161.21" r="4" fill="#313695" fill-opacity="0.72" /><circle cx="226.31" cy="268.85" r="4" fill="#313695" fill-opacity="0.72" /><circle cx="138.68" cy="328.58" r="4" fill="#313695" fill-opacity="0.72" /><circle cx="165.66" cy="250.56" r="4" fill="#313695" fill-opacity="0.72" /><circle cx="176.03" cy="287.31" r="4" fill="#313695" fill-opacity="0.72" /><circle cx="346.12" cy="198.69" r="4" fill="#313695" fill-opacity="0.72" /><circle cx="454.67" cy="311.18" r="4" fill="#313695" fill-opacity="0.72" /><circle cx="360.29" cy="179.18" r="4" fill="#313695" fill-opacity="0.72" /><circle cx="479.88" cy="210.92" r="4" fill="#313695" fill-opacity="0.72" /><circle cx="502.59" cy="210.63" r="4" fill="#313695" fill-opacity="0.72" /><circle cx="528.53" cy="106.58" r="4" fill="#313695" fill-opacity="0.72" /><circle cx="325.57" cy="224.93" r="4" fill="#313695" fill-opacity="0.72" /><circle cx="472.12" cy="198.20" r="4" fill="#313695" fill-opacity="0.72" /><circle cx="293.97" cy="190.99" r="4" fill="#313695" fill-opacity="0.72" /><circle cx="350.77" cy="175.17" r="4" fill="#313695" fill-opacity="0.72" /><circle cx="434.99" cy="179.08" r="4" fill="#313695" fill-opacity="0.72" /><circle cx="413.98" cy="180.18" r="4" fill="#313695" fill-opacity="0.72" /><circle cx="357.72" cy="235.83" r="4" fill="#313695" fill-opacity="0.72" /><circle cx="477.10" cy="150.48" r="4" fill="#313695" fill-opacity="0.72" /><circle cx="535.97" cy="221.28" r="4" fill="#313695" fill-opacity="0.72" /><circle cx="278.76" cy="249.77" r="4" fill="#313695" fill-opacity="0.72" /><circle cx="340.34" cy="237.96" r="4" fill="#313695" fill-opacity="0.72" /><circle cx="420.90" cy="91.93" r="4" fill="#313695" fill-opacity="0.72" /><circle cx="354.27" cy="281.30" r="4" fill="#313695" fill-opacity="0.72" /><circle cx="416.43" cy="127.65" r="4" fill="#313695" fill-opacity="0.72" /><circle cx="360.99" cy="242.24" r="4" fill="#313695" fill-opacity="0.72" /><circle cx="388.54" cy="210.02" r="4" fill="#313695" fill-opacity="0.72" /><circle cx="285.23" cy="192.25" r="4" fill="#313695" fill-opacity="0.72" /><circle cx="370.37" cy="219.92" r="4" fill="#313695" fill-opacity="0.72" /><circle cx="237.56" cy="259.17" r="4" fill="#313695" fill-opacity="0.72" /><circle cx="469.01" cy="70.00" r="4" fill="#313695" fill-opacity="0.72" /><circle cx="293.80" cy="200.56" r="4" fill="#313695" fill-opacity="0.72" /><circle cx="324.06" cy="248.39" r="4" fill="#313695" fill-opacity="0.72" /><circle cx="269.47" cy="250.69" r="4" fill="#313695" fill-opacity="0.72" /><circle cx="368.18" cy="125.77" r="4" fill="#313695" fill-opacity="0.72" /><circle cx="364.58" cy="248.11" r="4" fill="#313695" fill-opacity="0.72" /><circle cx="213.27" cy="267.38" r="4" fill="#313695" fill-opacity="0.72" /><circle cx="401.72" cy="97.34" r="4" fill="#313695" fill-opacity="0.72" /><circle cx="395.42" cy="155.81" r="4" fill="#313695" fill-opacity="0.72" /><circle cx="353.24" cy="234.54" r="4" fill="#313695" fill-opacity="0.72" /><circle cx="400.40" cy="101.37" r="4" fill="#313695" fill-opacity="0.72" /><circle cx="398.98" cy="207.12" r="4" fill="#313695" fill-opacity="0.72" /><circle cx="412.24" cy="140.90" r="4" fill="#313695" fill-opacity="0.72" /><circle cx="365.75" cy="193.15" r="4" fill="#313695" fill-opacity="0.72" /><circle cx="361.60" cy="256.71" r="4" fill="#313695" fill-opacity="0.72" /><circle cx="332.40" cy="161.74" r="4" fill="#313695" fill-opacity="0.72" /><circle cx="326.53" cy="186.77" r="4" fill="#313695" fill-opacity="0.72" /><circle cx="271.82" cy="184.04" r="4" fill="#313695" fill-opacity="0.72" /><circle cx="372.76" cy="189.76" r="4" fill="#313695" fill-opacity="0.72" /><circle cx="391.10" cy="181.12" r="4" fill="#313695" fill-opacity="0.72" /><circle cx="423.26" cy="179.31" r="4" fill="#313695" fill-opacity="0.72" />
<rect x="690" y="32" width="14" height="14" fill="#d73027" /><text x="712" y="44" font-size="14">angry</text><rect x="690" y="56" width="14" height="14" fill="#1a9850" /><text x="712" y="68" font-size="14">disgust</text><rect x="690" y="80" width="14" height="14" fill="#762a83" /><text x="712" y="92" font-size="14">fear</text><rect x="690" y="104" width="14" height="14" fill="#fdae61" /><text x="712" y="116" font-size="14">happy</text><rect x="690" y="128" width="14" height="14" fill="#4575b4" /><text x="712" y="140" font-size="14">neutral</text><rect x="690" y="152" width="14" height="14" fill="#66c2a5" /><text x="712" y="164" font-size="14">pleasant_surprise</text><rect x="690" y="176" width="14" height="14" fill="#313695" /><text x="712" y="188" font-size="14">sad</text>
</svg>
