<svg xmlns="http://www.w3.org/2000/svg" width="900" height="640" viewBox="0 0 900 640">
<rect width="100%" height="100%" fill="#ffffff"/>
<text x="70" y="38" font-size="22" font-family="Arial" font-weight="700">Temporal Speech Representation</text>
<line x1="70" y1="570" x2="830" y2="570" stroke="#333"/>
<line x1="70" y1="70" x2="70" y2="570" stroke="#333"/>
<text x="420" y="618" font-size="14" font-family="Arial">PC1</text>
<text x="22" y="320" font-size="14" font-family="Arial" transform="rotate(-90 22,320)">PC2</text>
<circle cx="439.66" cy="371.83" r="4" fill="#d73027" fill-opacity="0.72" /><circle cx="303.35" cy="271.92" r="4" fill="#d73027" fill-opacity="0.72" /><circle cx="322.00" cy="284.47" r="4" fill="#d73027" fill-opacity="0.72" /><circle cx="328.78" cy="283.35" r="4" fill="#d73027" fill-opacity="0.72" /><circle cx="343.27" cy="285.67" r="4" fill="#d73027" fill-opacity="0.72" /><circle cx="273.93" cy="153.85" r="4" fill="#d73027" fill-opacity="0.72" /><circle cx="184.59" cy="174.95" r="4" fill="#d73027" fill-opacity="0.72" /><circle cx="386.73" cy="366.60" r="4" fill="#d73027" fill-opacity="0.72" /><circle cx="374.24" cy="194.81" r="4" fill="#d73027" fill-opacity="0.72" /><circle cx="320.01" cy="225.15" r="4" fill="#d73027" fill-opacity="0.72" /><circle cx="250.92" cy="366.10" r="4" fill="#d73027" fill-opacity="0.72" /><circle cx="279.58" cy="110.80" r="4" fill="#d73027" fill-opacity="0.72" /><circle cx="354.28" cy="193.43" r="4" fill="#d73027" fill-opacity="0.72" /><circle cx="171.30" cy="222.79" r="4" fill="#d73027" fill-opacity="0.72" /><circle cx="369.55" cy="179.43" r="4" fill="#d73027" fill-opacity="0.72" /><circle cx="281.12" cy="263.08" r="4" fill="#d73027" fill-opacity="0.72" /><circle cx="238.52" cy="248.41" r="4" fill="#d73027" fill-opacity="0.72" /><circle cx="367.54" cy="296.13" r="4" fill="#d73027" fill-opacity="0.72" /><circle cx="345.43" cy="225.77" r="4" fill="#d73027" fill-opacity="0.72" /><circle cx="315.90" cy="264.24" r="4" fill="#d73027" fill-opacity="0.72" /><circle cx="281.47" cy="185.80" r="4" fill="#d73027" fill-opacity="0.72" /><circle cx="364.72" cy="265.46" r="4" fill="#d73027" fill-opacity="0.72" /><circle cx="208.82" cy="198.86" r="4" fill="#d73027" fill-opacity="0.72" /><circle cx="362.82" cy="251.20" r="4" fill="#d73027" fill-opacity="0.72" /><circle cx="374.82" cy="424.41" r="4" fill="#d73027" fill-opacity="0.72" /><circle cx="278.36" cy="287.01" r="4" fill="#d73027" fill-opacity="0.72" /><circle cx="318.49" cy="309.89" r="4" fill="#d73027" fill-opacity="0.72" /><circle cx="339.09" cy="316.74" r="4" fill="#d73027" fill-opacity="0.72" /><circle cx="300.69" cy="241.78" r="4" fill="#d73027" fill-opacity="0.72" /><circle cx="269.28" cy="160.77" r="4" fill="#d73027" fill-opacity="0.72" /><circle cx="530.26" cy="367.05" r="4" fill="#d73027" fill-opacity="0.72" /><circle cx="514.69" cy="282.04" r="4" fill="#d73027" fill-opacity="0.72" /><circle cx="420.23" cy="300.75" r="4" fill="#d73027" fill-opacity="0.72" /><circle cx="336.83" cy="321.74" r="4" fill="#d73027" fill-opacity="0.72" /><circle cx="385.68" cy="267.55" r="4" fill="#d73027" fill-opacity="0.72" /><circle cx="200.55" cy="103.81" r="4" fill="#d73027" fill-opacity="0.72" /><circle cx="281.25" cy="184.18" r="4" fill="#d73027" fill-opacity="0.72" /><circle cx="304.37" cy="197.96" r="4" fill="#d73027" fill-opacity="0.72" /><circle cx="301.56" cy="280.11" r="4" fill="#d73027" fill-opacity="0.72" /><circle cx="286.94" cy="216.21" r="4" fill="#d73027" fill-opacity="0.72" /><circle cx="660.76" cy="291.96" r="4" fill="#d73027" fill-opacity="0.72" /><circle cx="546.38" cy="289.70" r="4" fill="#d73027" fill-opacity="0.72" /><circle cx="624.39" cy="347.99" r="4" fill="#d73027" fill-opacity="0.72" /><circle cx="594.33" cy="319.22" r="4" fill="#d73027" fill-opacity="0.72" /><circle cx="623.00" cy="389.58" r="4" fill="#d73027" fill-opacity="0.72" /><circle cx="508.41" cy="323.96" r="4" fill="#d73027" fill-opacity="0.72" /><circle cx="667.61" cy="403.20" r="4" fill="#d73027" fill-opacity="0.72" /><circle cx="668.69" cy="346.66" r="4" fill="#d73027" fill-opacity="0.72" /><circle cx="548.41" cy="392.71" r="4" fill="#d73027" fill-opacity="0.72" /><circle cx="760.04" cy="322.61" r="4" fill="#d73027" fill-opacity="0.72" /><circle cx="768.26" cy="311.80" r="4" fill="#d73027" fill-opacity="0.72" /><circle cx="592.22" cy="343.06" r="4" fill="#d73027" fill-opacity="0.72" /><circle cx="640.23" cy="301.90" r="4" fill="#d73027" fill-opacity="0.72" /><circle cx="609.25" cy="336.04" r="4" fill="#d73027" fill-opacity="0.72" /><circle cx="740.76" cy="351.52" r="4" fill="#d73027" fill-opacity="0.72" /><circle cx="716.76" cy="338.05" r="4" fill="#d73027" fill-opacity="0.72" /><circle cx="826.80" cy="326.05" r="4" fill="#d73027" fill-opacity="0.72" /><circle cx="661.57" cy="311.02" r="4" fill="#d73027" fill-opacity="0.72" /><circle cx="750.43" cy="359.27" r="4" fill="#d73027" fill-opacity="0.72" /><circle cx="688.15" cy="323.34" r="4" fill="#d73027" fill-opacity="0.72" /><circle cx="653.17" cy="375.42" r="4" fill="#d73027" fill-opacity="0.72" /><circle cx="485.67" cy="306.79" r="4" fill="#d73027" fill-opacity="0.72" /><circle cx="671.46" cy="283.70" r="4" fill="#d73027" fill-opacity="0.72" /><circle cx="482.50" cy="282.47" r="4" fill="#d73027" fill-opacity="0.72" /><circle cx="623.24" cy="390.58" r="4" fill="#d73027" fill-opacity="0.72" /><circle cx="642.21" cy="350.60" r="4" fill="#d73027" fill-opacity="0.72" /><circle cx="599.68" cy="270.86" r="4" fill="#d73027" fill-opacity="0.72" /><circle cx="521.70" cy="366.93" r="4" fill="#d73027" fill-opacity="0.72" /><circle cx="670.35" cy="345.94" r="4" fill="#d73027" fill-opacity="0.72" /><circle cx="808.94" cy="352.54" r="4" fill="#d73027" fill-opacity="0.72" /><circle cx="717.23" cy="228.22" r="4" fill="#d73027" fill-opacity="0.72" /><circle cx="672.81" cy="219.02" r="4" fill="#d73027" fill-opacity="0.72" /><circle cx="729.00" cy="303.71" r="4" fill="#d73027" fill-opacity="0.72" /><circle cx="642.42" cy="356.42" r="4" fill="#d73027" fill-opacity="0.72" /><circle cx="676.41" cy="292.54" r="4" fill="#d73027" fill-opacity="0.72" /><circle cx="677.07" cy="331.11" r="4" fill="#d73027" fill-opacity="0.72" /><circle cx="607.30" cy="337.37" r="4" fill="#d73027" fill-opacity="0.72" /><circle cx="557.76" cy="310.17" r="4" fill="#d73027" fill-opacity="0.72" /><circle cx="624.28" cy="340.18" r="4" fill="#d73027" fill-opacity="0.72" /><circle cx="547.69" cy="378.93" r="4" fill="#d73027" fill-opacity="0.72" /><circle cx="212.00" cy="436.09" r="4" fill="#1a9850" fill-opacity="0.72" /><circle cx="282.71" cy="379.64" r="4" fill="#1a9850" fill-opacity="0.72" /><circle cx="201.36" cy="352.91" r="4" fill="#1a9850" fill-opacity="0.72" /><circle cx="253.34" cy="407.39" r="4" fill="#1a9850" fill-opacity="0.72" /><circle cx="185.39" cy="343.96" r="4" fill="#1a9850" fill-opacity="0.72" /><circle cx="145.65" cy="354.12" r="4" fill="#1a9850" fill-opacity="0.72" /><circle cx="351.67" cy="356.46" r="4" fill="#1a9850" fill-opacity="0.72" /><circle cx="182.62" cy="303.26" r="4" fill="#1a9850" fill-opacity="0.72" /><circle cx="211.12" cy="297.96" r="4" fill="#1a9850" fill-opacity="0.72" /><circle cx="225.57" cy="394.86" r="4" fill="#1a9850" fill-opacity="0.72" /><circle cx="327.36" cy="446.03" r="4" fill="#1a9850" fill-opacity="0.72" /><circle cx="347.04" cy="450.06" r="4" fill="#1a9850" fill-opacity="0.72" /><circle cx="274.71" cy="384.23" r="4" fill="#1a9850" fill-opacity="0.72" /><circle cx="263.33" cy="344.79" r="4" fill="#1a9850" fill-opacity="0.72" /><circle cx="218.35" cy="341.28" r="4" fill="#1a9850" fill-opacity="0.72" /><circle cx="164.35" cy="303.13" r="4" fill="#1a9850" fill-opacity="0.72" /><circle cx="230.78" cy="470.16" r="4" fill="#1a9850" fill-opacity="0.72" /><circle cx="204.92" cy="375.71" r="4" fill="#1a9850" fill-opacity="0.72" /><circle cx="218.02" cy="344.08" r="4" fill="#1a9850" fill-opacity="0.72" /><circle cx="174.14" cy="385.01" r="4" fill="#1a9850" fill-opacity="0.72" /><circle cx="94.18" cy="297.65" r="4" fill="#1a9850" fill-opacity="0.72" /><circle cx="359.59" cy="369.12" r="4" fill="#1a9850" fill-opacity="0.72" /><circle cx="373.96" cy="416.07" r="4" fill="#1a9850" fill-opacity="0.72" /><circle cx="490.98" cy="455.14" r="4" fill="#1a9850" fill-opacity="0.72" /><circle cx="520.62" cy="485.60" r="4" fill="#1a9850" fill-opacity="0.72" /><circle cx="204.33" cy="312.27" r="4" fill="#1a9850" fill-opacity="0.72" /><circle cx="242.83" cy="314.08" r="4" fill="#1a9850" fill-opacity="0.72" /><circle cx="242.93" cy="352.86" r="4" fill="#1a9850" fill-opacity="0.72" /><circle cx="292.79" cy="389.58" r="4" fill="#1a9850" fill-opacity="0.72" /><circle cx="206.95" cy="403.13" r="4" fill="#1a9850" fill-opacity="0.72" /><circle cx="169.31" cy="336.20" r="4" fill="#1a9850" fill-opacity="0.72" /><circle cx="249.83" cy="395.52" r="4" fill="#1a9850" fill-opacity="0.72" /><circle cx="258.96" cy="407.04" r="4" fill="#1a9850" fill-opacity="0.72" /><circle cx="271.75" cy="425.45" r="4" fill="#1a9850" fill-opacity="0.72" /><circle cx="379.88" cy="344.20" r="4" fill="#1a9850" fill-opacity="0.72" /><circle cx="388.46" cy="330.70" r="4" fill="#1a9850" fill-opacity="0.72" /><circle cx="504.24" cy="348.61" r="4" fill="#1a9850" fill-opacity="0.72" /><circle cx="534.28" cy="299.57" r="4" fill="#1a9850" fill-opacity="0.72" /><circle cx="666.33" cy="428.87" r="4" fill="#1a9850" fill-opacity="0.72" /><circle cx="422.81" cy="366.61" r="4" fill="#1a9850" fill-opacity="0.72" /><circle cx="452.07" cy="303.90" r="4" fill="#1a9850" fill-opacity="0.72" /><circle cx="529.87" cy="343.22" r="4" fill="#1a9850" fill-opacity="0.72" /><circle cx="414.35" cy="318.87" r="4" fill="#1a9850" fill-opacity="0.72" /><circle cx="503.96" cy="368.14" r="4" fill="#1a9850" fill-opacity="0.72" /><circle cx="581.76" cy="362.38" r="4" fill="#1a9850" fill-opacity="0.72" /><circle cx="539.03" cy="357.71" r="4" fill="#1a9850" fill-opacity="0.72" /><circle cx="517.01" cy="278.68" r="4" fill="#1a9850" fill-opacity="0.72" /><circle cx="414.39" cy="337.07" r="4" fill="#1a9850" fill-opacity="0.72" /><circle cx="538.20" cy="415.51" r="4" fill="#1a9850" fill-opacity="0.72" /><circle cx="591.86" cy="320.73" r="4" fill="#1a9850" fill-opacity="0.72" /><circle cx="401.56" cy="387.14" r="4" fill="#1a9850" fill-opacity="0.72" /><circle cx="587.88" cy="332.95" r="4" fill="#1a9850" fill-opacity="0.72" /><circle cx="436.02" cy="430.93" r="4" fill="#1a9850" fill-opacity="0.72" /><circle cx="505.56" cy="368.10" r="4" fill="#1a9850" fill-opacity="0.72" /><circle cx="530.59" cy="301.05" r="4" fill="#1a9850" fill-opacity="0.72" /><circle cx="484.51" cy="332.25" r="4" fill="#1a9850" fill-opacity="0.72" /><circle cx="583.53" cy="344.91" r="4" fill="#1a9850" fill-opacity="0.72" /><circle cx="536.01" cy="348.32" r="4" fill="#1a9850" fill-opacity="0.72" /><circle cx="309.80" cy="324.48" r="4" fill="#1a9850" fill-opacity="0.72" /><circle cx="341.78" cy="355.46" r="4" fill="#1a9850" fill-opacity="0.72" /><circle cx="443.66" cy="408.50" r="4" fill="#1a9850" fill-opacity="0.72" /><circle cx="555.74" cy="527.95" r="4" fill="#1a9850" fill-opacity="0.72" /><circle cx="343.62" cy="397.38" r="4" fill="#1a9850" fill-opacity="0.72" /><circle cx="431.26" cy="353.13" r="4" fill="#1a9850" fill-opacity="0.72" /><circle cx="463.34" cy="452.42" r="4" fill="#1a9850" fill-opacity="0.72" /><circle cx="562.84" cy="520.32" r="4" fill="#1a9850" fill-opacity="0.72" /><circle cx="484.15" cy="351.26" r="4" fill="#1a9850" fill-opacity="0.72" /><circle cx="524.91" cy="457.41" r="4" fill="#1a9850" fill-opacity="0.72" /><circle cx="479.69" cy="360.17" r="4" fill="#1a9850" fill-opacity="0.72" /><circle cx="573.96" cy="423.16" r="4" fill="#1a9850" fill-opacity="0.72" /><circle cx="521.83" cy="340.82" r="4" fill="#1a9850" fill-opacity="0.72" /><circle cx="630.45" cy="397.03" r="4" fill="#1a9850" fill-opacity="0.72" /><circle cx="628.56" cy="366.19" r="4" fill="#1a9850" fill-opacity="0.72" /><circle cx="379.82" cy="376.12" r="4" fill="#1a9850" fill-opacity="0.72" /><circle cx="459.94" cy="352.07" r="4" fill="#1a9850" fill-opacity="0.72" /><circle cx="372.42" cy="353.46" r="4" fill="#1a9850" fill-opacity="0.72" /><circle cx="386.90" cy="355.11" r="4" fill="#1a9850" fill-opacity="0.72" /><circle cx="368.45" cy="338.70" r="4" fill="#1a9850" fill-opacity="0.72" /><circle cx="590.46" cy="461.07" r="4" fill="#1a9850" fill-opacity="0.72" /><circle cx="352.20" cy="309.78" r="4" fill="#1a9850" fill-opacity="0.72" /><circle cx="366.28" cy="386.45" r="4" fill="#762a83" fill-opacity="0.72" /><circle cx="233.39" cy="311.17" r="4" fill="#762a83" fill-opacity="0.72" /><circle cx="223.25" cy="384.52" r="4" fill="#762a83" fill-opacity="0.72" /><circle cx="283.61" cy="300.84" r="4" fill="#762a83" fill-opacity="0.72" /><circle cx="326.30" cy="216.62" r="4" fill="#762a83" fill-opacity="0.72" /><circle cx="389.76" cy="414.91" r="4" fill="#762a83" fill-opacity="0.72" /><circle cx="221.03" cy="240.74" r="4" fill="#762a83" fill-opacity="0.72" /><circle cx="346.97" cy="367.87" r="4" fill="#762a83" fill-opacity="0.72" /><circle cx="385.81" cy="438.70" r="4" fill="#762a83" fill-opacity="0.72" /><circle cx="373.79" cy="221.99" r="4" fill="#762a83" fill-opacity="0.72" /><circle cx="347.14" cy="274.82" r="4" fill="#762a83" fill-opacity="0.72" /><circle cx="307.41" cy="240.56" r="4" fill="#762a83" fill-opacity="0.72" /><circle cx="386.16" cy="300.24" r="4" fill="#762a83" fill-opacity="0.72" /><circle cx="419.27" cy="315.11" r="4" fill="#762a83" fill-opacity="0.72" /><circle cx="241.37" cy="316.25" r="4" fill="#762a83" fill-opacity="0.72" /><circle cx="292.58" cy="310.81" r="4" fill="#762a83" fill-opacity="0.72" /><circle cx="264.73" cy="318.23" r="4" fill="#762a83" fill-opacity="0.72" /><circle cx="321.78" cy="404.20" r="4" fill="#762a83" fill-opacity="0.72" /><circle cx="252.76" cy="304.80" r="4" fill="#762a83" fill-opacity="0.72" /><circle cx="227.71" cy="336.61" r="4" fill="#762a83" fill-opacity="0.72" /><circle cx="409.23" cy="334.64" r="4" fill="#762a83" fill-opacity="0.72" /><circle cx="250.25" cy="365.74" r="4" fill="#762a83" fill-opacity="0.72" /><circle cx="236.02" cy="239.26" r="4" fill="#762a83" fill-opacity="0.72" /><circle cx="297.36" cy="263.29" r="4" fill="#762a83" fill-opacity="0.72" /><circle cx="326.52" cy="398.68" r="4" fill="#762a83" fill-opacity="0.72" /><circle cx="245.43" cy="288.75" r="4" fill="#762a83" fill-opacity="0.72" /><circle cx="168.06" cy="282.68" r="4" fill="#762a83" fill-opacity="0.72" /><circle cx="300.23" cy="295.81" r="4" fill="#762a83" fill-opacity="0.72" /><circle cx="220.62" cy="269.02" r="4" fill="#762a83" fill-opacity="0.72" /><circle cx="177.75" cy="232.76" r="4" fill="#762a83" fill-opacity="0.72" /><circle cx="466.71" cy="450.17" r="4" fill="#762a83" fill-opacity="0.72" /><circle cx="472.92" cy="441.84" r="4" fill="#762a83" fill-opacity="0.72" /><circle cx="345.04" cy="244.71" r="4" fill="#762a83" fill-opacity="0.72" /><circle cx="275.34" cy="298.37" r="4" fill="#762a83" fill-opacity="0.72" /><circle cx="405.69" cy="360.95" r="4" fill="#762a83" fill-opacity="0.72" /><circle cx="271.75" cy="308.16" r="4" fill="#762a83" fill-opacity="0.72" /><circle cx="330.20" cy="374.12" r="4" fill="#762a83" fill-opacity="0.72" /><circle cx="330.59" cy="274.71" r="4" fill="#762a83" fill-opacity="0.72" /><circle cx="267.18" cy="264.02" r="4" fill="#762a83" fill-opacity="0.72" /><circle cx="270.97" cy="245.92" r="4" fill="#762a83" fill-opacity="0.72" /><circle cx="530.60" cy="297.94" r="4" fill="#762a83" fill-opacity="0.72" /><circle cx="758.15" cy="252.63" r="4" fill="#762a83" fill-opacity="0.72" /><circle cx="733.40" cy="264.63" r="4" fill="#762a83" fill-opacity="0.72" /><circle cx="508.83" cy="286.59" r="4" fill="#762a83" fill-opacity="0.72" /><circle cx="506.53" cy="218.62" r="4" fill="#762a83" fill-opacity="0.72" /><circle cx="486.05" cy="231.82" r="4" fill="#762a83" fill-opacity="0.72" /><circle cx="813.07" cy="299.43" r="4" fill="#762a83" fill-opacity="0.72" /><circle cx="578.56" cy="479.79" r="4" fill="#762a83" fill-opacity="0.72" /><circle cx="699.22" cy="198.73" r="4" fill="#762a83" fill-opacity="0.72" /><circle cx="614.70" cy="276.18" r="4" fill="#762a83" fill-opacity="0.72" /><circle cx="403.69" cy="255.84" r="4" fill="#762a83" fill-opacity="0.72" /><circle cx="696.47" cy="228.45" r="4" fill="#762a83" fill-opacity="0.72" /><circle cx="484.17" cy="319.99" r="4" fill="#762a83" fill-opacity="0.72" /><circle cx="705.66" cy="306.35" r="4" fill="#762a83" fill-opacity="0.72" /><circle cx="717.62" cy="283.34" r="4" fill="#762a83" fill-opacity="0.72" /><circle cx="480.34" cy="218.24" r="4" fill="#762a83" fill-opacity="0.72" /><circle cx="562.64" cy="224.48" r="4" fill="#762a83" fill-opacity="0.72" /><circle cx="549.63" cy="219.96" r="4" fill="#762a83" fill-opacity="0.72" /><circle cx="666.25" cy="374.73" r="4" fill="#762a83" fill-opacity="0.72" /><circle cx="616.81" cy="364.69" r="4" fill="#762a83" fill-opacity="0.72" /><circle cx="408.24" cy="176.84" r="4" fill="#762a83" fill-opacity="0.72" /><circle cx="481.31" cy="299.78" r="4" fill="#762a83" fill-opacity="0.72" /><circle cx="622.54" cy="229.51" r="4" fill="#762a83" fill-opacity="0.72" /><circle cx="545.44" cy="174.89" r="4" fill="#762a83" fill-opacity="0.72" /><circle cx="549.09" cy="334.29" r="4" fill="#762a83" fill-opacity="0.72" /><circle cx="538.63" cy="342.40" r="4" fill="#762a83" fill-opacity="0.72" /><circle cx="548.05" cy="262.43" r="4" fill="#762a83" fill-opacity="0.72" /><circle cx="580.20" cy="204.27" r="4" fill="#762a83" fill-opacity="0.72" /><circle cx="681.96" cy="182.66" r="4" fill="#762a83" fill-opacity="0.72" /><circle cx="634.92" cy="241.26" r="4" fill="#762a83" fill-opacity="0.72" /><circle cx="522.00" cy="305.69" r="4" fill="#762a83" fill-opacity="0.72" /><circle cx="647.30" cy="278.87" r="4" fill="#762a83" fill-opacity="0.72" /><circle cx="622.09" cy="289.47" r="4" fill="#762a83" fill-opacity="0.72" /><circle cx="701.05" cy="316.91" r="4" fill="#762a83" fill-opacity="0.72" /><circle cx="689.98" cy="294.73" r="4" fill="#762a83" fill-opacity="0.72" /><circle cx="692.79" cy="305.35" r="4" fill="#762a83" fill-opacity="0.72" /><circle cx="536.92" cy="189.34" r="4" fill="#762a83" fill-opacity="0.72" /><circle cx="593.57" cy="193.23" r="4" fill="#762a83" fill-opacity="0.72" /><circle cx="475.09" cy="217.31" r="4" fill="#762a83" fill-opacity="0.72" /><circle cx="726.00" cy="299.64" r="4" fill="#762a83" fill-opacity="0.72" /><circle cx="172.19" cy="294.42" r="4" fill="#fdae61" fill-opacity="0.72" /><circle cx="351.70" cy="405.87" r="4" fill="#fdae61" fill-opacity="0.72" /><circle cx="247.98" cy="355.47" r="4" fill="#fdae61" fill-opacity="0.72" /><circle cx="291.28" cy="294.75" r="4" fill="#fdae61" fill-opacity="0.72" /><circle cx="409.83" cy="313.05" r="4" fill="#fdae61" fill-opacity="0.72" /><circle cx="452.78" cy="319.39" r="4" fill="#fdae61" fill-opacity="0.72" /><circle cx="251.01" cy="257.13" r="4" fill="#fdae61" fill-opacity="0.72" /><circle cx="187.21" cy="292.36" r="4" fill="#fdae61" fill-opacity="0.72" /><circle cx="275.73" cy="363.32" r="4" fill="#fdae61" fill-opacity="0.72" /><circle cx="217.70" cy="295.11" r="4" fill="#fdae61" fill-opacity="0.72" /><circle cx="460.17" cy="345.31" r="4" fill="#fdae61" fill-opacity="0.72" /><circle cx="417.62" cy="345.54" r="4" fill="#fdae61" fill-opacity="0.72" /><circle cx="341.16" cy="438.29" r="4" fill="#fdae61" fill-opacity="0.72" /><circle cx="297.54" cy="343.08" r="4" fill="#fdae61" fill-opacity="0.72" /><circle cx="333.65" cy="316.63" r="4" fill="#fdae61" fill-opacity="0.72" /><circle cx="340.70" cy="331.22" r="4" fill="#fdae61" fill-opacity="0.72" /><circle cx="267.57" cy="287.22" r="4" fill="#fdae61" fill-opacity="0.72" /><circle cx="358.41" cy="299.45" r="4" fill="#fdae61" fill-opacity="0.72" /><circle cx="344.82" cy="345.09" r="4" fill="#fdae61" fill-opacity="0.72" /><circle cx="290.48" cy="338.66" r="4" fill="#fdae61" fill-opacity="0.72" /><circle cx="266.39" cy="269.54" r="4" fill="#fdae61" fill-opacity="0.72" /><circle cx="229.79" cy="305.99" r="4" fill="#fdae61" fill-opacity="0.72" /><circle cx="269.06" cy="260.90" r="4" fill="#fdae61" fill-opacity="0.72" /><circle cx="268.63" cy="320.34" r="4" fill="#fdae61" fill-opacity="0.72" /><circle cx="275.77" cy="322.83" r="4" fill="#fdae61" fill-opacity="0.72" /><circle cx="171.34" cy="309.54" r="4" fill="#fdae61" fill-opacity="0.72" /><circle cx="253.79" cy="345.70" r="4" fill="#fdae61" fill-opacity="0.72" /><circle cx="302.72" cy="370.21" r="4" fill="#fdae61" fill-opacity="0.72" /><circle cx="226.23" cy="253.95" r="4" fill="#fdae61" fill-opacity="0.72" /><circle cx="292.60" cy="282.19" r="4" fill="#fdae61" fill-opacity="0.72" /><circle cx="466.89" cy="381.78" r="4" fill="#fdae61" fill-opacity="0.72" /><circle cx="395.23" cy="417.13" r="4" fill="#fdae61" fill-opacity="0.72" /><circle cx="479.55" cy="352.29" r="4" fill="#fdae61" fill-opacity="0.72" /><circle cx="393.03" cy="422.72" r="4" fill="#fdae61" fill-opacity="0.72" /><circle cx="479.86" cy="422.80" r="4" fill="#fdae61" fill-opacity="0.72" /><circle cx="435.37" cy="391.61" r="4" fill="#fdae61" fill-opacity="0.72" /><circle cx="504.46" cy="375.05" r="4" fill="#fdae61" fill-opacity="0.72" /><circle cx="358.22" cy="365.27" r="4" fill="#fdae61" fill-opacity="0.72" /><circle cx="427.77" cy="365.26" r="4" fill="#fdae61" fill-opacity="0.72" /><circle cx="288.22" cy="351.11" r="4" fill="#fdae61" fill-opacity="0.72" /><circle cx="335.18" cy="392.07" r="4" fill="#fdae61" fill-opacity="0.72" /><circle cx="250.17" cy="330.63" r="4" fill="#fdae61" fill-opacity="0.72" /><circle cx="203.96" cy="320.07" r="4" fill="#fdae61" fill-opacity="0.72" /><circle cx="319.47" cy="422.37" r="4" fill="#fdae61" fill-opacity="0.72" /><circle cx="406.90" cy="342.18" r="4" fill="#fdae61" fill-opacity="0.72" /><circle cx="329.38" cy="337.05" r="4" fill="#fdae61" fill-opacity="0.72" /><circle cx="513.59" cy="169.72" r="4" fill="#fdae61" fill-opacity="0.72" /><circle cx="480.30" cy="253.90" r="4" fill="#fdae61" fill-opacity="0.72" /><circle cx="596.81" cy="207.00" r="4" fill="#fdae61" fill-opacity="0.72" /><circle cx="704.05" cy="273.66" r="4" fill="#fdae61" fill-opacity="0.72" /><circle cx="613.01" cy="285.52" r="4" fill="#fdae61" fill-opacity="0.72" /><circle cx="648.44" cy="353.85" r="4" fill="#fdae61" fill-opacity="0.72" /><circle cx="592.00" cy="211.26" r="4" fill="#fdae61" fill-opacity="0.72" /><circle cx="615.76" cy="224.77" r="4" fill="#fdae61" fill-opacity="0.72" /><circle cx="530.08" cy="256.83" r="4" fill="#fdae61" fill-opacity="0.72" /><circle cx="558.71" cy="320.26" r="4" fill="#fdae61" fill-opacity="0.72" /><circle cx="664.25" cy="285.04" r="4" fill="#fdae61" fill-opacity="0.72" /><circle cx="629.98" cy="211.99" r="4" fill="#fdae61" fill-opacity="0.72" /><circle cx="484.82" cy="164.59" r="4" fill="#fdae61" fill-opacity="0.72" /><circle cx="439.87" cy="197.48" r="4" fill="#fdae61" fill-opacity="0.72" /><circle cx="647.17" cy="180.96" r="4" fill="#fdae61" fill-opacity="0.72" /><circle cx="486.04" cy="278.38" r="4" fill="#fdae61" fill-opacity="0.72" /><circle cx="556.85" cy="291.87" r="4" fill="#fdae61" fill-opacity="0.72" /><circle cx="577.32" cy="238.11" r="4" fill="#fdae61" fill-opacity="0.72" /><circle cx="507.12" cy="207.72" r="4" fill="#fdae61" fill-opacity="0.72" /><circle cx="491.70" cy="241.78" r="4" fill="#fdae61" fill-opacity="0.72" /><circle cx="610.66" cy="363.94" r="4" fill="#fdae61" fill-opacity="0.72" /><circle cx="443.96" cy="70.00" r="4" fill="#fdae61" fill-opacity="0.72" /><circle cx="482.74" cy="223.82" r="4" fill="#fdae61" fill-opacity="0.72" /><circle cx="425.47" cy="160.50" r="4" fill="#fdae61" fill-opacity="0.72" /><circle cx="490.51" cy="244.39" r="4" fill="#fdae61" fill-opacity="0.72" /><circle cx="718.77" cy="300.11" r="4" fill="#fdae61" fill-opacity="0.72" /><circle cx="598.66" cy="226.18" r="4" fill="#fdae61" fill-opacity="0.72" /><circle cx="453.64" cy="202.48" r="4" fill="#fdae61" fill-opacity="0.72" /><circle cx="657.39" cy="256.10" r="4" fill="#fdae61" fill-opacity="0.72" /><circle cx="504.29" cy="325.39" r="4" fill="#fdae61" fill-opacity="0.72" /><circle cx="622.38" cy="287.80" r="4" fill="#fdae61" fill-opacity="0.72" /><circle cx="486.51" cy="229.85" r="4" fill="#fdae61" fill-opacity="0.72" /><circle cx="649.67" cy="273.45" r="4" fill="#fdae61" fill-opacity="0.72" /><circle cx="364.98" cy="182.09" r="4" fill="#fdae61" fill-opacity="0.72" /><circle cx="143.26" cy="210.27" r="4" fill="#4575b4" fill-opacity="0.72" /><circle cx="107.51" cy="297.13" r="4" fill="#4575b4" fill-opacity="0.72" /><circle cx="136.78" cy="335.32" r="4" fill="#4575b4" fill-opacity="0.72" /><circle cx="70.00" cy="193.78" r="4" fill="#4575b4" fill-opacity="0.72" /><circle cx="240.04" cy="303.44" r="4" fill="#4575b4" fill-opacity="0.72" /><circle cx="334.55" cy="319.41" r="4" fill="#4575b4" fill-opacity="0.72" /><circle cx="198.13" cy="337.77" r="4" fill="#4575b4" fill-opacity="0.72" /><circle cx="180.40" cy="297.19" r="4" fill="#4575b4" fill-opacity="0.72" /><circle cx="198.48" cy="302.70" r="4" fill="#4575b4" fill-opacity="0.72" /><circle cx="191.32" cy="231.99" r="4" fill="#4575b4" fill-opacity="0.72" /><circle cx="156.78" cy="299.08" r="4" fill="#4575b4" fill-opacity="0.72" /><circle cx="323.76" cy="258.44" r="4" fill="#4575b4" fill-opacity="0.72" /><circle cx="164.28" cy="303.72" r="4" fill="#4575b4" fill-opacity="0.72" /><circle cx="360.79" cy="445.23" r="4" fill="#4575b4" fill-opacity="0.72" /><circle cx="277.49" cy="302.94" r="4" fill="#4575b4" fill-opacity="0.72" /><circle cx="214.56" cy="259.20" r="4" fill="#4575b4" fill-opacity="0.72" /><circle cx="221.04" cy="241.34" r="4" fill="#4575b4" fill-opacity="0.72" /><circle cx="111.05" cy="220.56" r="4" fill="#4575b4" fill-opacity="0.72" /><circle cx="195.54" cy="315.06" r="4" fill="#4575b4" fill-opacity="0.72" /><circle cx="127.81" cy="315.38" r="4" fill="#4575b4" fill-opacity="0.72" /><circle cx="91.13" cy="255.82" r="4" fill="#4575b4" fill-opacity="0.72" /><circle cx="81.96" cy="308.82" r="4" fill="#4575b4" fill-opacity="0.72" /><circle cx="131.61" cy="223.39" r="4" fill="#4575b4" fill-opacity="0.72" /><circle cx="263.68" cy="316.52" r="4" fill="#4575b4" fill-opacity="0.72" /><circle cx="163.13" cy="305.59" r="4" fill="#4575b4" fill-opacity="0.72" /><circle cx="245.70" cy="299.05" r="4" fill="#4575b4" fill-opacity="0.72" /><circle cx="128.89" cy="278.24" r="4" fill="#4575b4" fill-opacity="0.72" /><circle cx="260.82" cy="390.16" r="4" fill="#4575b4" fill-opacity="0.72" /><circle cx="238.07" cy="379.43" r="4" fill="#4575b4" fill-opacity="0.72" /><circle cx="131.71" cy="306.52" r="4" fill="#4575b4" fill-opacity="0.72" /><circle cx="266.56" cy="344.79" r="4" fill="#4575b4" fill-opacity="0.72" /><circle cx="347.68" cy="372.89" r="4" fill="#4575b4" fill-opacity="0.72" /><circle cx="273.04" cy="327.58" r="4" fill="#4575b4" fill-opacity="0.72" /><circle cx="249.07" cy="252.09" r="4" fill="#4575b4" fill-opacity="0.72" /><circle cx="308.18" cy="386.64" r="4" fill="#4575b4" fill-opacity="0.72" /><circle cx="149.96" cy="323.26" r="4" fill="#4575b4" fill-opacity="0.72" /><circle cx="128.23" cy="292.81" r="4" fill="#4575b4" fill-opacity="0.72" /><circle cx="203.00" cy="318.02" r="4" fill="#4575b4" fill-opacity="0.72" /><circle cx="161.82" cy="309.43" r="4" fill="#4575b4" fill-opacity="0.72" /><circle cx="185.92" cy="282.31" r="4" fill="#4575b4" fill-opacity="0.72" /><circle cx="231.46" cy="370.39" r="4" fill="#4575b4" fill-opacity="0.72" /><circle cx="298.10" cy="380.47" r="4" fill="#4575b4" fill-opacity="0.72" /><circle cx="375.25" cy="312.77" r="4" fill="#4575b4" fill-opacity="0.72" /><circle cx="422.89" cy="318.19" r="4" fill="#4575b4" fill-opacity="0.72" /><circle cx="411.37" cy="347.66" r="4" fill="#4575b4" fill-opacity="0.72" /><circle cx="373.95" cy="390.96" r="4" fill="#4575b4" fill-opacity="0.72" /><circle cx="411.83" cy="314.84" r="4" fill="#4575b4" fill-opacity="0.72" /><circle cx="372.94" cy="308.45" r="4" fill="#4575b4" fill-opacity="0.72" /><circle cx="413.89" cy="330.06" r="4" fill="#4575b4" fill-opacity="0.72" /><circle cx="285.15" cy="302.65" r="4" fill="#4575b4" fill-opacity="0.72" /><circle cx="509.06" cy="341.96" r="4" fill="#4575b4" fill-opacity="0.72" /><circle cx="345.59" cy="355.54" r="4" fill="#4575b4" fill-opacity="0.72" /><circle cx="447.47" cy="382.45" r="4" fill="#4575b4" fill-opacity="0.72" /><circle cx="456.82" cy="261.21" r="4" fill="#4575b4" fill-opacity="0.72" /><circle cx="341.89" cy="302.36" r="4" fill="#4575b4" fill-opacity="0.72" /><circle cx="421.74" cy="446.49" r="4" fill="#4575b4" fill-opacity="0.72" /><circle cx="308.28" cy="359.38" r="4" fill="#4575b4" fill-opacity="0.72" /><circle cx="194.97" cy="363.26" r="4" fill="#4575b4" fill-opacity="0.72" /><circle cx="301.82" cy="247.27" r="4" fill="#4575b4" fill-opacity="0.72" /><circle cx="334.71" cy="351.53" r="4" fill="#4575b4" fill-opacity="0.72" /><circle cx="438.80" cy="379.01" r="4" fill="#4575b4" fill-opacity="0.72" /><circle cx="404.24" cy="369.36" r="4" fill="#4575b4" fill-opacity="0.72" /><circle cx="392.54" cy="353.66" r="4" fill="#4575b4" fill-opacity="0.72" /><circle cx="372.94" cy="302.29" r="4" fill="#4575b4" fill-opacity="0.72" /><circle cx="473.55" cy="497.22" r="4" fill="#4575b4" fill-opacity="0.72" /><circle cx="360.66" cy="342.17" r="4" fill="#4575b4" fill-opacity="0.72" /><circle cx="232.42" cy="253.24" r="4" fill="#4575b4" fill-opacity="0.72" /><circle cx="261.90" cy="309.26" r="4" fill="#4575b4" fill-opacity="0.72" /><circle cx="292.44" cy="317.00" r="4" fill="#4575b4" fill-opacity="0.72" /><circle cx="325.27" cy="289.72" r="4" fill="#4575b4" fill-opacity="0.72" /><circle cx="425.87" cy="384.97" r="4" fill="#4575b4" fill-opacity="0.72" /><circle cx="464.39" cy="271.77" r="4" fill="#4575b4" fill-opacity="0.72" /><circle cx="423.11" cy="307.80" r="4" fill="#4575b4" fill-opacity="0.72" /><circle cx="353.85" cy="290.23" r="4" fill="#4575b4" fill-opacity="0.72" /><circle cx="440.31" cy="370.48" r="4" fill="#4575b4" fill-opacity="0.72" /><circle cx="232.96" cy="329.72" r="4" fill="#4575b4" fill-opacity="0.72" /><circle cx="372.55" cy="409.55" r="4" fill="#4575b4" fill-opacity="0.72" /><circle cx="201.97" cy="363.23" r="4" fill="#4575b4" fill-opacity="0.72" /><circle cx="400.19" cy="354.29" r="4" fill="#4575b4" fill-opacity="0.72" /><circle cx="474.85" cy="369.90" r="4" fill="#4575b4" fill-opacity="0.72" /><circle cx="234.56" cy="326.90" r="4" fill="#66c2a5" fill-opacity="0.72" /><circle cx="335.26" cy="417.35" r="4" fill="#66c2a5" fill-opacity="0.72" /><circle cx="285.42" cy="349.19" r="4" fill="#66c2a5" fill-opacity="0.72" /><circle cx="206.91" cy="192.87" r="4" fill="#66c2a5" fill-opacity="0.72" /><circle cx="136.92" cy="301.93" r="4" fill="#66c2a5" fill-opacity="0.72" /><circle cx="335.59" cy="354.30" r="4" fill="#66c2a5" fill-opacity="0.72" /><circle cx="412.42" cy="403.31" r="4" fill="#66c2a5" fill-opacity="0.72" /><circle cx="210.98" cy="354.49" r="4" fill="#66c2a5" fill-opacity="0.72" /><circle cx="282.93" cy="289.79" r="4" fill="#66c2a5" fill-opacity="0.72" /><circle cx="281.53" cy="313.94" r="4" fill="#66c2a5" fill-opacity="0.72" /><circle cx="153.48" cy="216.34" r="4" fill="#66c2a5" fill-opacity="0.72" /><circle cx="231.12" cy="348.57" r="4" fill="#66c2a5" fill-opacity="0.72" /><circle cx="325.66" cy="326.80" r="4" fill="#66c2a5" fill-opacity="0.72" /><circle cx="299.04" cy="303.08" r="4" fill="#66c2a5" fill-opacity="0.72" /><circle cx="433.29" cy="311.95" r="4" fill="#66c2a5" fill-opacity="0.72" /><circle cx="391.96" cy="354.37" r="4" fill="#66c2a5" fill-opacity="0.72" /><circle cx="371.69" cy="428.91" r="4" fill="#66c2a5" fill-opacity="0.72" /><circle cx="173.20" cy="326.56" r="4" fill="#66c2a5" fill-opacity="0.72" /><circle cx="209.09" cy="299.21" r="4" fill="#66c2a5" fill-opacity="0.72" /><circle cx="285.03" cy="341.41" r="4" fill="#66c2a5" fill-opacity="0.72" /><circle cx="318.83" cy="401.47" r="4" fill="#66c2a5" fill-opacity="0.72" /><circle cx="247.89" cy="329.74" r="4" fill="#66c2a5" fill-opacity="0.72" /><circle cx="254.27" cy="301.11" r="4" fill="#66c2a5" fill-opacity="0.72" /><circle cx="136.49" cy="261.67" r="4" fill="#66c2a5" fill-opacity="0.72" /><circle cx="225.77" cy="373.19" r="4" fill="#66c2a5" fill-opacity="0.72" /><circle cx="252.52" cy="245.33" r="4" fill="#66c2a5" fill-opacity="0.72" /><circle cx="234.84" cy="377.31" r="4" fill="#66c2a5" fill-opacity="0.72" /><circle cx="407.59" cy="358.49" r="4" fill="#66c2a5" fill-opacity="0.72" /><circle cx="429.78" cy="401.51" r="4" fill="#66c2a5" fill-opacity="0.72" /><circle cx="329.70" cy="387.75" r="4" fill="#66c2a5" fill-opacity="0.72" /><circle cx="392.91" cy="380.86" r="4" fill="#66c2a5" fill-opacity="0.72" /><circle cx="368.52" cy="398.69" r="4" fill="#66c2a5" fill-opacity="0.72" /><circle cx="224.08" cy="368.34" r="4" fill="#66c2a5" fill-opacity="0.72" /><circle cx="268.36" cy="286.40" r="4" fill="#66c2a5" fill-opacity="0.72" /><circle cx="371.83" cy="347.87" r="4" fill="#66c2a5" fill-opacity="0.72" /><circle cx="270.05" cy="301.09" r="4" fill="#66c2a5" fill-opacity="0.72" /><circle cx="479.65" cy="337.08" r="4" fill="#66c2a5" fill-opacity="0.72" /><circle cx="714.22" cy="341.78" r="4" fill="#66c2a5" fill-opacity="0.72" /><circle cx="591.72" cy="304.03" r="4" fill="#66c2a5" fill-opacity="0.72" /><circle cx="600.83" cy="356.23" r="4" fill="#66c2a5" fill-opacity="0.72" /><circle cx="788.70" cy="364.08" r="4" fill="#66c2a5" fill-opacity="0.72" /><circle cx="731.80" cy="288.02" r="4" fill="#66c2a5" fill-opacity="0.72" /><circle cx="697.68" cy="337.36" r="4" fill="#66c2a5" fill-opacity="0.72" /><circle cx="800.77" cy="283.52" r="4" fill="#66c2a5" fill-opacity="0.72" /><circle cx="759.77" cy="328.70" r="4" fill="#66c2a5" fill-opacity="0.72" /><circle cx="608.31" cy="353.78" r="4" fill="#66c2a5" fill-opacity="0.72" /><circle cx="604.27" cy="289.14" r="4" fill="#66c2a5" fill-opacity="0.72" /><circle cx="669.47" cy="266.69" r="4" fill="#66c2a5" fill-opacity="0.72" /><circle cx="433.83" cy="251.25" r="4" fill="#66c2a5" fill-opacity="0.72" /><circle cx="508.99" cy="398.80" r="4" fill="#66c2a5" fill-opacity="0.72" /><circle cx="617.46" cy="299.44" r="4" fill="#66c2a5" fill-opacity="0.72" /><circle cx="601.36" cy="357.35" r="4" fill="#66c2a5" fill-opacity="0.72" /><circle cx="656.45" cy="364.76" r="4" fill="#66c2a5" fill-opacity="0.72" /><circle cx="573.27" cy="217.40" r="4" fill="#66c2a5" fill-opacity="0.72" /><circle cx="442.39" cy="176.40" r="4" fill="#66c2a5" fill-opacity="0.72" /><circle cx="805.14" cy="335.43" r="4" fill="#66c2a5" fill-opacity="0.72" /><circle cx="525.10" cy="305.12" r="4" fill="#66c2a5" fill-opacity="0.72" /><circle cx="451.42" cy="253.83" r="4" fill="#66c2a5" fill-opacity="0.72" /><circle cx="534.88" cy="454.37" r="4" fill="#66c2a5" fill-opacity="0.72" /><circle cx="554.66" cy="364.20" r="4" fill="#66c2a5" fill-opacity="0.72" /><circle cx="374.76" cy="326.18" r="4" fill="#66c2a5" fill-opacity="0.72" /><circle cx="345.57" cy="264.04" r="4" fill="#66c2a5" fill-opacity="0.72" /><circle cx="667.02" cy="464.01" r="4" fill="#66c2a5" fill-opacity="0.72" /><circle cx="602.24" cy="249.32" r="4" fill="#66c2a5" fill-opacity="0.72" /><circle cx="542.31" cy="244.12" r="4" fill="#66c2a5" fill-opacity="0.72" /><circle cx="504.57" cy="347.72" r="4" fill="#66c2a5" fill-opacity="0.72" /><circle cx="652.25" cy="371.11" r="4" fill="#66c2a5" fill-opacity="0.72" /><circle cx="754.03" cy="377.23" r="4" fill="#66c2a5" fill-opacity="0.72" /><circle cx="732.38" cy="241.69" r="4" fill="#66c2a5" fill-opacity="0.72" /><circle cx="729.83" cy="333.49" r="4" fill="#66c2a5" fill-opacity="0.72" /><circle cx="655.07" cy="432.05" r="4" fill="#66c2a5" fill-opacity="0.72" /><circle cx="680.63" cy="382.18" r="4" fill="#66c2a5" fill-opacity="0.72" /><circle cx="669.52" cy="283.55" r="4" fill="#66c2a5" fill-opacity="0.72" /><circle cx="569.23" cy="410.59" r="4" fill="#66c2a5" fill-opacity="0.72" /><circle cx="830.00" cy="267.34" r="4" fill="#66c2a5" fill-opacity="0.72" /><circle cx="639.49" cy="303.87" r="4" fill="#66c2a5" fill-opacity="0.72" /><circle cx="544.54" cy="332.85" r="4" fill="#66c2a5" fill-opacity="0.72" /><circle cx="409.02" cy="363.40" r="4" fill="#66c2a5" fill-opacity="0.72" /><circle cx="607.46" cy="333.40" r="4" fill="#66c2a5" fill-opacity="0.72" /><circle cx="570.99" cy="291.58" r="4" fill="#66c2a5" fill-opacity="0.72" /><circle cx="169.67" cy="369.26" r="4" fill="#313695" fill-opacity="0.72" /><circle cx="130.68" cy="379.86" r="4" fill="#313695" fill-opacity="0.72" /><circle cx="128.83" cy="340.16" r="4" fill="#313695" fill-opacity="0.72" /><circle cx="126.57" cy="277.09" r="4" fill="#313695" fill-opacity="0.72" /><circle cx="145.42" cy="381.78" r="4" fill="#313695" fill-opacity="0.72" /><circle cx="230.95" cy="334.18" r="4" fill="#313695" fill-opacity="0.72" /><circle cx="121.82" cy="287.28" r="4" fill="#313695" fill-opacity="0.72" /><circle cx="253.07" cy="410.82" r="4" fill="#313695" fill-opacity="0.72" /><circle cx="360.73" cy="489.37" r="4" fill="#313695" fill-opacity="0.72" /><circle cx="317.52" cy="483.69" r="4" fill="#313695" fill-opacity="0.72" /><circle cx="190.98" cy="427.29" r="4" fill="#313695" fill-opacity="0.72" /><circle cx="211.92" cy="305.47" r="4" fill="#313695" fill-opacity="0.72" /><circle cx="263.65" cy="313.19" r="4" fill="#313695" fill-opacity="0.72" /><circle cx="72.94" cy="237.14" r="4" fill="#313695" fill-opacity="0.72" /><circle cx="149.37" cy="354.93" r="4" fill="#313695" fill-opacity="0.72" /><circle cx="82.86" cy="272.44" r="4" fill="#313695" fill-opacity="0.72" /><circle cx="113.94" cy="340.47" r="4" fill="#313695" fill-opacity="0.72" /><circle cx="165.72" cy="387.71" r="4" fill="#313695" fill-opacity="0.72" /><circle cx="128.51" cy="329.47" r="4" fill="#313695" fill-opacity="0.72" /><circle cx="297.88" cy="426.73" r="4" fill="#313695" fill-opacity="0.72" /><circle cx="145.55" cy="263.20" r="4" fill="#313695" fill-opacity="0.72" /><circle cx="121.07" cy="354.81" r="4" fill="#313695" fill-opacity="0.72" /><circle cx="191.87" cy="326.07" r="4" fill="#313695" fill-opacity="0.72" /><circle cx="240.44" cy="400.25" r="4" fill="#313695" fill-opacity="0.72" /><circle cx="256.01" cy="375.85" r="4" fill="#313695" fill-opacity="0.72" /><circle cx="315.95" cy="413.00" r="4" fill="#313695" fill-opacity="0.72" /><circle cx="376.39" cy="435.89" r="4" fill="#313695" fill-opacity="0.72" /><circle cx="314.63" cy="509.71" r="4" fill="#313695" fill-opacity="0.72" /><circle cx="256.51" cy="431.39" r="4" fill="#313695" fill-opacity="0.72" /><circle cx="268.47" cy="478.79" r="4" fill="#313695" fill-opacity="0.72" /><circle cx="226.31" cy="371.15" r="4" fill="#313695" fill-opacity="0.72" /><circle cx="138.68" cy="311.42" r="4" fill="#313695" fill-opacity="0.72" /><circle cx="165.66" cy="389.44" r="4" fill="#313695" fill-opacity="0.72" /><circle cx="176.03" cy="352.69" r="4" fill="#313695" fill-opacity="0.72" /><circle cx="346.12" cy="441.31" r="4" fill="#313695" fill-opacity="0.72" /><circle cx="454.67" cy="328.82" r="4" fill="#313695" fill-opacity="0.72" /><circle cx="360.29" cy="460.82" r="4" fill="#313695" fill-opacity="0.72" /><circle cx="479.88" cy="429.08" r="4" fill="#313695" fill-opacity="0.72" /><circle cx="502.59" cy="429.37" r="4" fill="#313695" fill-opacity="0.72" /><circle cx="528.53" cy="533.42" r="4" fill="#313695" fill-opacity="0.72" /><circle cx="325.57" cy="415.07" r="4" fill="#313695" fill-opacity="0.72" /><circle cx="472.12" cy="441.80" r="4" fill="#313695" fill-opacity="0.72" /><circle cx="293.97" cy="449.01" r="4" fill="#313695" fill-opacity="0.72" /><circle cx="350.77" cy="464.83" r="4" fill="#313695" fill-opacity="0.72" /><circle cx="434.99" cy="460.92" r="4" fill="#313695" fill-opacity="0.72" /><circle cx="413.98" cy="459.82" r="4" fill="#313695" fill-opacity="0.72" /><circle cx="357.72" cy="404.17" r="4" fill="#313695" fill-opacity="0.72" /><circle cx="477.10" cy="489.52" r="4" fill="#313695" fill-opacity="0.72" /><circle cx="535.97" cy="418.72" r="4" fill="#313695" fill-opacity="0.72" /><circle cx="278.76" cy="390.23" r="4" fill="#313695" fill-opacity="0.72" /><circle cx="340.34" cy="402.04" r="4" fill="#313695" fill-opacity="0.72" /><circle cx="420.90" cy="548.07" r="4" fill="#313695" fill-opacity="0.72" /><circle cx="354.27" cy="358.70" r="4" fill="#313695" fill-opacity="0.72" /><circle cx="416.43" cy="512.35" r="4" fill="#313695" fill-opacity="0.72" /><circle cx="360.99" cy="397.76" r="4" fill="#313695" fill-opacity="0.72" /><circle cx="388.54" cy="429.98" r="4" fill="#313695" fill-opacity="0.72" /><circle cx="285.23" cy="447.75" r="4" fill="#313695" fill-opacity="0.72" /><circle cx="370.37" cy="420.08" r="4" fill="#313695" fill-opacity="0.72" /><circle cx="237.56" cy="380.83" r="4" fill="#313695" fill-opacity="0.72" /><circle cx="469.01" cy="570.00" r="4" fill="#313695" fill-opacity="0.72" /><circle cx="293.80" cy="439.44" r="4" fill="#313695" fill-opacity="0.72" /><circle cx="324.06" cy="391.61" r="4" fill="#313695" fill-opacity="0.72" /><circle cx="269.47" cy="389.31" r="4" fill="#313695" fill-opacity="0.72" /><circle cx="368.18" cy="514.23" r="4" fill="#313695" fill-opacity="0.72" /><circle cx="364.58" cy="391.89" r="4" fill="#313695" fill-opacity="0.72" /><circle cx="213.27" cy="372.62" r="4" fill="#313695" fill-opacity="0.72" /><circle cx="401.72" cy="542.66" r="4" fill="#313695" fill-opacity="0.72" /><circle cx="395.42" cy="484.19" r="4" fill="#313695" fill-opacity="0.72" /><circle cx="353.24" cy="405.46" r="4" fill="#313695" fill-opacity="0.72" /><circle cx="400.40" cy="538.63" r="4" fill="#313695" fill-opacity="0.72" /><circle cx="398.98" cy="432.88" r="4" fill="#313695" fill-opacity="0.72" /><circle cx="412.24" cy="499.10" r="4" fill="#313695" fill-opacity="0.72" /><circle cx="365.75" cy="446.85" r="4" fill="#313695" fill-opacity="0.72" /><circle cx="361.60" cy="383.29" r="4" fill="#313695" fill-opacity="0.72" /><circle cx="332.40" cy="478.26" r="4" fill="#313695" fill-opacity="0.72" /><circle cx="326.53" cy="453.23" r="4" fill="#313695" fill-opacity="0.72" /><circle cx="271.82" cy="455.96" r="4" fill="#313695" fill-opacity="0.72" /><circle cx="372.76" cy="450.24" r="4" fill="#313695" fill-opacity="0.72" /><circle cx="391.10" cy="458.88" r="4" fill="#313695" fill-opacity="0.72" /><circle cx="423.26" cy="460.69" r="4" fill="#313695" fill-opacity="0.72" />
<rect x="690" y="32" width="14" height="14" fill="#d73027" /><text x="712" y="44" font-size="14">angry</text><rect x="690" y="56" width="14" height="14" fill="#1a9850" /><text x="712" y="68" font-size="14">disgust</text><rect x="690" y="80" width="14" height="14" fill="#762a83" /><text x="712" y="92" font-size="14">fear</text><rect x="690" y="104" width="14" height="14" fill="#fdae61" /><text x="712" y="116" font-size="14">happy</text><rect x="690" y="128" width="14" height="14" fill="#4575b4" /><text x="712" y="140" font-size="14">neutral</text><rect x="690" y="152" width="14" height="14" fill="#66c2a5" /><text x="712" y="164" font-size="14">pleasant_surprise</text><rect x="690" y="176" width="14" height="14" fill="#313695" /><text x="712" y="188" font-size="14">sad</text>
</svg>
