<svg xmlns="http://www.w3.org/2000/svg" width="900" height="640" viewBox="0 0 900 640">
<rect width="100%" height="100%" fill="#ffffff"/>
<text x="70" y="38" font-size="22" font-family="Arial" font-weight="700">Contextual Text Representation</text>
<line x1="70" y1="570" x2="830" y2="570" stroke="#333"/>
<line x1="70" y1="70" x2="70" y2="570" stroke="#333"/>
<text x="420" y="618" font-size="14" font-family="Arial">PC1</text>
<text x="22" y="320" font-size="14" font-family="Arial" transform="rotate(-90 22,320)">PC2</text>
<circle cx="193.35" cy="307.87" r="4" fill="#d73027" fill-opacity="0.72" /><circle cx="233.93" cy="319.51" r="4" fill="#d73027" fill-opacity="0.72" /><circle cx="727.83" cy="300.52" r="4" fill="#d73027" fill-opacity="0.72" /><circle cx="134.55" cy="254.42" r="4" fill="#d73027" fill-opacity="0.72" /><circle cx="191.47" cy="295.96" r="4" fill="#d73027" fill-opacity="0.72" /><circle cx="198.57" cy="311.66" r="4" fill="#d73027" fill-opacity="0.72" /><circle cx="203.92" cy="314.53" r="4" fill="#d73027" fill-opacity="0.72" /><circle cx="154.10" cy="428.04" r="4" fill="#d73027" fill-opacity="0.72" /><circle cx="214.33" cy="323.64" r="4" fill="#d73027" fill-opacity="0.72" /><circle cx="196.08" cy="321.81" r="4" fill="#d73027" fill-opacity="0.72" /><circle cx="212.25" cy="313.86" r="4" fill="#d73027" fill-opacity="0.72" /><circle cx="103.33" cy="516.72" r="4" fill="#d73027" fill-opacity="0.72" /><circle cx="144.65" cy="407.19" r="4" fill="#d73027" fill-opacity="0.72" /><circle cx="218.08" cy="317.42" r="4" fill="#d73027" fill-opacity="0.72" /><circle cx="203.87" cy="371.39" r="4" fill="#d73027" fill-opacity="0.72" /><circle cx="187.80" cy="337.46" r="4" fill="#d73027" fill-opacity="0.72" /><circle cx="197.79" cy="321.33" r="4" fill="#d73027" fill-opacity="0.72" /><circle cx="193.87" cy="318.23" r="4" fill="#d73027" fill-opacity="0.72" /><circle cx="194.07" cy="315.99" r="4" fill="#d73027" fill-opacity="0.72" /><circle cx="204.96" cy="323.16" r="4" fill="#d73027" fill-opacity="0.72" /><circle cx="203.15" cy="315.15" r="4" fill="#d73027" fill-opacity="0.72" /><circle cx="203.26" cy="315.85" r="4" fill="#d73027" fill-opacity="0.72" /><circle cx="203.87" cy="316.32" r="4" fill="#d73027" fill-opacity="0.72" /><circle cx="123.07" cy="261.57" r="4" fill="#d73027" fill-opacity="0.72" /><circle cx="205.94" cy="321.25" r="4" fill="#d73027" fill-opacity="0.72" /><circle cx="243.26" cy="288.74" r="4" fill="#d73027" fill-opacity="0.72" /><circle cx="196.02" cy="314.86" r="4" fill="#d73027" fill-opacity="0.72" /><circle cx="203.80" cy="314.15" r="4" fill="#d73027" fill-opacity="0.72" /><circle cx="182.80" cy="339.33" r="4" fill="#d73027" fill-opacity="0.72" /><circle cx="202.31" cy="359.80" r="4" fill="#d73027" fill-opacity="0.72" /><circle cx="192.51" cy="330.63" r="4" fill="#d73027" fill-opacity="0.72" /><circle cx="346.59" cy="313.24" r="4" fill="#d73027" fill-opacity="0.72" /><circle cx="163.32" cy="308.94" r="4" fill="#d73027" fill-opacity="0.72" /><circle cx="200.92" cy="320.02" r="4" fill="#d73027" fill-opacity="0.72" /><circle cx="223.75" cy="289.36" r="4" fill="#d73027" fill-opacity="0.72" /><circle cx="198.29" cy="304.84" r="4" fill="#d73027" fill-opacity="0.72" /><circle cx="192.07" cy="296.71" r="4" fill="#d73027" fill-opacity="0.72" /><circle cx="122.06" cy="278.28" r="4" fill="#d73027" fill-opacity="0.72" /><circle cx="124.22" cy="267.99" r="4" fill="#d73027" fill-opacity="0.72" /><circle cx="373.54" cy="314.24" r="4" fill="#d73027" fill-opacity="0.72" /><circle cx="233.93" cy="319.51" r="4" fill="#d73027" fill-opacity="0.72" /><circle cx="180.16" cy="377.02" r="4" fill="#d73027" fill-opacity="0.72" /><circle cx="106.02" cy="388.18" r="4" fill="#d73027" fill-opacity="0.72" /><circle cx="160.97" cy="169.97" r="4" fill="#d73027" fill-opacity="0.72" /><circle cx="151.48" cy="70.00" r="4" fill="#d73027" fill-opacity="0.72" /><circle cx="204.46" cy="320.55" r="4" fill="#d73027" fill-opacity="0.72" /><circle cx="164.29" cy="272.60" r="4" fill="#d73027" fill-opacity="0.72" /><circle cx="214.33" cy="323.64" r="4" fill="#d73027" fill-opacity="0.72" /><circle cx="203.49" cy="315.07" r="4" fill="#d73027" fill-opacity="0.72" /><circle cx="189.76" cy="340.12" r="4" fill="#d73027" fill-opacity="0.72" /><circle cx="203.98" cy="315.23" r="4" fill="#d73027" fill-opacity="0.72" /><circle cx="198.81" cy="319.00" r="4" fill="#d73027" fill-opacity="0.72" /><circle cx="213.92" cy="323.93" r="4" fill="#d73027" fill-opacity="0.72" /><circle cx="212.25" cy="313.86" r="4" fill="#d73027" fill-opacity="0.72" /><circle cx="84.99" cy="319.82" r="4" fill="#d73027" fill-opacity="0.72" /><circle cx="144.65" cy="407.19" r="4" fill="#d73027" fill-opacity="0.72" /><circle cx="202.36" cy="314.24" r="4" fill="#d73027" fill-opacity="0.72" /><circle cx="129.38" cy="249.90" r="4" fill="#d73027" fill-opacity="0.72" /><circle cx="150.79" cy="173.46" r="4" fill="#d73027" fill-opacity="0.72" /><circle cx="204.83" cy="314.93" r="4" fill="#d73027" fill-opacity="0.72" /><circle cx="204.75" cy="310.26" r="4" fill="#d73027" fill-opacity="0.72" /><circle cx="219.78" cy="319.27" r="4" fill="#d73027" fill-opacity="0.72" /><circle cx="243.26" cy="288.74" r="4" fill="#d73027" fill-opacity="0.72" /><circle cx="212.91" cy="319.96" r="4" fill="#d73027" fill-opacity="0.72" /><circle cx="189.40" cy="329.74" r="4" fill="#d73027" fill-opacity="0.72" /><circle cx="124.95" cy="195.46" r="4" fill="#d73027" fill-opacity="0.72" /><circle cx="199.77" cy="305.61" r="4" fill="#d73027" fill-opacity="0.72" /><circle cx="221.99" cy="305.74" r="4" fill="#d73027" fill-opacity="0.72" /><circle cx="188.77" cy="338.61" r="4" fill="#d73027" fill-opacity="0.72" /><circle cx="199.09" cy="318.89" r="4" fill="#d73027" fill-opacity="0.72" /><circle cx="143.70" cy="426.64" r="4" fill="#d73027" fill-opacity="0.72" /><circle cx="141.97" cy="446.85" r="4" fill="#d73027" fill-opacity="0.72" /><circle cx="398.75" cy="353.64" r="4" fill="#d73027" fill-opacity="0.72" /><circle cx="200.92" cy="320.02" r="4" fill="#d73027" fill-opacity="0.72" /><circle cx="153.26" cy="215.83" r="4" fill="#d73027" fill-opacity="0.72" /><circle cx="240.93" cy="298.20" r="4" fill="#d73027" fill-opacity="0.72" /><circle cx="199.72" cy="311.01" r="4" fill="#d73027" fill-opacity="0.72" /><circle cx="192.07" cy="296.71" r="4" fill="#d73027" fill-opacity="0.72" /><circle cx="181.03" cy="373.24" r="4" fill="#d73027" fill-opacity="0.72" /><circle cx="184.70" cy="376.03" r="4" fill="#d73027" fill-opacity="0.72" /><circle cx="233.93" cy="319.51" r="4" fill="#1a9850" fill-opacity="0.72" /><circle cx="180.16" cy="377.02" r="4" fill="#1a9850" fill-opacity="0.72" /><circle cx="213.65" cy="321.33" r="4" fill="#1a9850" fill-opacity="0.72" /><circle cx="191.47" cy="295.96" r="4" fill="#1a9850" fill-opacity="0.72" /><circle cx="204.46" cy="320.55" r="4" fill="#1a9850" fill-opacity="0.72" /><circle cx="210.34" cy="320.35" r="4" fill="#1a9850" fill-opacity="0.72" /><circle cx="189.76" cy="340.12" r="4" fill="#1a9850" fill-opacity="0.72" /><circle cx="213.92" cy="323.93" r="4" fill="#1a9850" fill-opacity="0.72" /><circle cx="218.08" cy="317.42" r="4" fill="#1a9850" fill-opacity="0.72" /><circle cx="192.24" cy="282.42" r="4" fill="#1a9850" fill-opacity="0.72" /><circle cx="202.36" cy="314.24" r="4" fill="#1a9850" fill-opacity="0.72" /><circle cx="202.31" cy="315.25" r="4" fill="#1a9850" fill-opacity="0.72" /><circle cx="204.96" cy="323.16" r="4" fill="#1a9850" fill-opacity="0.72" /><circle cx="162.38" cy="298.93" r="4" fill="#1a9850" fill-opacity="0.72" /><circle cx="129.38" cy="249.90" r="4" fill="#1a9850" fill-opacity="0.72" /><circle cx="204.36" cy="315.28" r="4" fill="#1a9850" fill-opacity="0.72" /><circle cx="204.75" cy="310.26" r="4" fill="#1a9850" fill-opacity="0.72" /><circle cx="203.87" cy="316.32" r="4" fill="#1a9850" fill-opacity="0.72" /><circle cx="199.41" cy="314.71" r="4" fill="#1a9850" fill-opacity="0.72" /><circle cx="184.39" cy="359.93" r="4" fill="#1a9850" fill-opacity="0.72" /><circle cx="219.78" cy="319.27" r="4" fill="#1a9850" fill-opacity="0.72" /><circle cx="199.96" cy="309.26" r="4" fill="#1a9850" fill-opacity="0.72" /><circle cx="189.40" cy="329.74" r="4" fill="#1a9850" fill-opacity="0.72" /><circle cx="192.51" cy="330.63" r="4" fill="#1a9850" fill-opacity="0.72" /><circle cx="163.32" cy="308.94" r="4" fill="#1a9850" fill-opacity="0.72" /><circle cx="180.19" cy="374.77" r="4" fill="#1a9850" fill-opacity="0.72" /><circle cx="198.29" cy="304.84" r="4" fill="#1a9850" fill-opacity="0.72" /><circle cx="222.98" cy="320.81" r="4" fill="#1a9850" fill-opacity="0.72" /><circle cx="192.07" cy="296.71" r="4" fill="#1a9850" fill-opacity="0.72" /><circle cx="201.26" cy="316.91" r="4" fill="#1a9850" fill-opacity="0.72" /><circle cx="181.03" cy="373.24" r="4" fill="#1a9850" fill-opacity="0.72" /><circle cx="190.15" cy="313.79" r="4" fill="#1a9850" fill-opacity="0.72" /><circle cx="98.23" cy="115.59" r="4" fill="#1a9850" fill-opacity="0.72" /><circle cx="122.06" cy="278.28" r="4" fill="#1a9850" fill-opacity="0.72" /><circle cx="192.74" cy="279.57" r="4" fill="#1a9850" fill-opacity="0.72" /><circle cx="200.67" cy="231.89" r="4" fill="#1a9850" fill-opacity="0.72" /><circle cx="202.47" cy="318.59" r="4" fill="#1a9850" fill-opacity="0.72" /><circle cx="204.05" cy="325.09" r="4" fill="#1a9850" fill-opacity="0.72" /><circle cx="70.00" cy="334.98" r="4" fill="#1a9850" fill-opacity="0.72" /><circle cx="213.65" cy="321.33" r="4" fill="#1a9850" fill-opacity="0.72" /><circle cx="201.27" cy="311.42" r="4" fill="#1a9850" fill-opacity="0.72" /><circle cx="198.57" cy="311.66" r="4" fill="#1a9850" fill-opacity="0.72" /><circle cx="203.92" cy="314.53" r="4" fill="#1a9850" fill-opacity="0.72" /><circle cx="185.88" cy="339.39" r="4" fill="#1a9850" fill-opacity="0.72" /><circle cx="203.98" cy="315.23" r="4" fill="#1a9850" fill-opacity="0.72" /><circle cx="212.25" cy="313.86" r="4" fill="#1a9850" fill-opacity="0.72" /><circle cx="123.69" cy="466.03" r="4" fill="#1a9850" fill-opacity="0.72" /><circle cx="103.33" cy="516.72" r="4" fill="#1a9850" fill-opacity="0.72" /><circle cx="141.87" cy="436.91" r="4" fill="#1a9850" fill-opacity="0.72" /><circle cx="84.99" cy="319.82" r="4" fill="#1a9850" fill-opacity="0.72" /><circle cx="218.08" cy="317.42" r="4" fill="#1a9850" fill-opacity="0.72" /><circle cx="203.87" cy="371.39" r="4" fill="#1a9850" fill-opacity="0.72" /><circle cx="197.79" cy="321.33" r="4" fill="#1a9850" fill-opacity="0.72" /><circle cx="207.95" cy="316.09" r="4" fill="#1a9850" fill-opacity="0.72" /><circle cx="287.28" cy="311.66" r="4" fill="#1a9850" fill-opacity="0.72" /><circle cx="193.87" cy="318.23" r="4" fill="#1a9850" fill-opacity="0.72" /><circle cx="193.74" cy="319.01" r="4" fill="#1a9850" fill-opacity="0.72" /><circle cx="204.96" cy="323.16" r="4" fill="#1a9850" fill-opacity="0.72" /><circle cx="216.38" cy="315.58" r="4" fill="#1a9850" fill-opacity="0.72" /><circle cx="200.34" cy="306.81" r="4" fill="#1a9850" fill-opacity="0.72" /><circle cx="200.24" cy="315.38" r="4" fill="#1a9850" fill-opacity="0.72" /><circle cx="205.94" cy="321.25" r="4" fill="#1a9850" fill-opacity="0.72" /><circle cx="209.64" cy="313.54" r="4" fill="#1a9850" fill-opacity="0.72" /><circle cx="203.71" cy="314.70" r="4" fill="#1a9850" fill-opacity="0.72" /><circle cx="115.52" cy="107.41" r="4" fill="#1a9850" fill-opacity="0.72" /><circle cx="198.66" cy="313.34" r="4" fill="#1a9850" fill-opacity="0.72" /><circle cx="201.12" cy="306.10" r="4" fill="#1a9850" fill-opacity="0.72" /><circle cx="195.93" cy="322.94" r="4" fill="#1a9850" fill-opacity="0.72" /><circle cx="199.96" cy="309.26" r="4" fill="#1a9850" fill-opacity="0.72" /><circle cx="199.09" cy="318.89" r="4" fill="#1a9850" fill-opacity="0.72" /><circle cx="180.19" cy="374.77" r="4" fill="#1a9850" fill-opacity="0.72" /><circle cx="830.00" cy="279.42" r="4" fill="#1a9850" fill-opacity="0.72" /><circle cx="618.75" cy="305.03" r="4" fill="#1a9850" fill-opacity="0.72" /><circle cx="202.22" cy="319.73" r="4" fill="#1a9850" fill-opacity="0.72" /><circle cx="184.70" cy="376.03" r="4" fill="#1a9850" fill-opacity="0.72" /><circle cx="124.22" cy="267.99" r="4" fill="#1a9850" fill-opacity="0.72" /><circle cx="201.38" cy="313.54" r="4" fill="#1a9850" fill-opacity="0.72" /><circle cx="144.81" cy="129.99" r="4" fill="#1a9850" fill-opacity="0.72" /><circle cx="201.84" cy="307.24" r="4" fill="#1a9850" fill-opacity="0.72" /><circle cx="373.54" cy="314.24" r="4" fill="#1a9850" fill-opacity="0.72" /><circle cx="193.35" cy="307.87" r="4" fill="#762a83" fill-opacity="0.72" /><circle cx="162.95" cy="188.21" r="4" fill="#762a83" fill-opacity="0.72" /><circle cx="210.36" cy="298.68" r="4" fill="#762a83" fill-opacity="0.72" /><circle cx="202.47" cy="318.59" r="4" fill="#762a83" fill-opacity="0.72" /><circle cx="204.05" cy="325.09" r="4" fill="#762a83" fill-opacity="0.72" /><circle cx="138.20" cy="302.17" r="4" fill="#762a83" fill-opacity="0.72" /><circle cx="201.27" cy="311.42" r="4" fill="#762a83" fill-opacity="0.72" /><circle cx="151.48" cy="70.00" r="4" fill="#762a83" fill-opacity="0.72" /><circle cx="145.32" cy="302.18" r="4" fill="#762a83" fill-opacity="0.72" /><circle cx="196.08" cy="321.81" r="4" fill="#762a83" fill-opacity="0.72" /><circle cx="123.69" cy="466.03" r="4" fill="#762a83" fill-opacity="0.72" /><circle cx="103.33" cy="516.72" r="4" fill="#762a83" fill-opacity="0.72" /><circle cx="141.87" cy="436.91" r="4" fill="#762a83" fill-opacity="0.72" /><circle cx="144.65" cy="407.19" r="4" fill="#762a83" fill-opacity="0.72" /><circle cx="246.93" cy="317.28" r="4" fill="#762a83" fill-opacity="0.72" /><circle cx="187.80" cy="337.46" r="4" fill="#762a83" fill-opacity="0.72" /><circle cx="192.24" cy="282.42" r="4" fill="#762a83" fill-opacity="0.72" /><circle cx="193.87" cy="318.23" r="4" fill="#762a83" fill-opacity="0.72" /><circle cx="199.25" cy="309.86" r="4" fill="#762a83" fill-opacity="0.72" /><circle cx="136.00" cy="98.63" r="4" fill="#762a83" fill-opacity="0.72" /><circle cx="203.54" cy="314.14" r="4" fill="#762a83" fill-opacity="0.72" /><circle cx="204.36" cy="315.28" r="4" fill="#762a83" fill-opacity="0.72" /><circle cx="216.38" cy="315.58" r="4" fill="#762a83" fill-opacity="0.72" /><circle cx="200.24" cy="315.38" r="4" fill="#762a83" fill-opacity="0.72" /><circle cx="337.17" cy="315.44" r="4" fill="#762a83" fill-opacity="0.72" /><circle cx="205.29" cy="319.38" r="4" fill="#762a83" fill-opacity="0.72" /><circle cx="205.01" cy="312.83" r="4" fill="#762a83" fill-opacity="0.72" /><circle cx="158.18" cy="300.38" r="4" fill="#762a83" fill-opacity="0.72" /><circle cx="162.58" cy="196.38" r="4" fill="#762a83" fill-opacity="0.72" /><circle cx="194.82" cy="306.89" r="4" fill="#762a83" fill-opacity="0.72" /><circle cx="187.44" cy="346.63" r="4" fill="#762a83" fill-opacity="0.72" /><circle cx="364.08" cy="314.13" r="4" fill="#762a83" fill-opacity="0.72" /><circle cx="200.92" cy="320.02" r="4" fill="#762a83" fill-opacity="0.72" /><circle cx="166.94" cy="341.94" r="4" fill="#762a83" fill-opacity="0.72" /><circle cx="230.19" cy="280.84" r="4" fill="#762a83" fill-opacity="0.72" /><circle cx="205.45" cy="319.14" r="4" fill="#762a83" fill-opacity="0.72" /><circle cx="201.26" cy="316.91" r="4" fill="#762a83" fill-opacity="0.72" /><circle cx="184.70" cy="376.03" r="4" fill="#762a83" fill-opacity="0.72" /><circle cx="124.22" cy="267.99" r="4" fill="#762a83" fill-opacity="0.72" /><circle cx="144.81" cy="129.99" r="4" fill="#762a83" fill-opacity="0.72" /><circle cx="195.41" cy="310.33" r="4" fill="#762a83" fill-opacity="0.72" /><circle cx="151.54" cy="302.41" r="4" fill="#762a83" fill-opacity="0.72" /><circle cx="138.20" cy="302.17" r="4" fill="#762a83" fill-opacity="0.72" /><circle cx="210.34" cy="320.35" r="4" fill="#762a83" fill-opacity="0.72" /><circle cx="154.10" cy="428.04" r="4" fill="#762a83" fill-opacity="0.72" /><circle cx="190.69" cy="288.04" r="4" fill="#762a83" fill-opacity="0.72" /><circle cx="192.28" cy="309.48" r="4" fill="#762a83" fill-opacity="0.72" /><circle cx="210.88" cy="316.52" r="4" fill="#762a83" fill-opacity="0.72" /><circle cx="123.69" cy="466.03" r="4" fill="#762a83" fill-opacity="0.72" /><circle cx="141.87" cy="436.91" r="4" fill="#762a83" fill-opacity="0.72" /><circle cx="246.93" cy="317.28" r="4" fill="#762a83" fill-opacity="0.72" /><circle cx="203.87" cy="371.39" r="4" fill="#762a83" fill-opacity="0.72" /><circle cx="187.80" cy="337.46" r="4" fill="#762a83" fill-opacity="0.72" /><circle cx="162.38" cy="298.93" r="4" fill="#762a83" fill-opacity="0.72" /><circle cx="129.38" cy="249.90" r="4" fill="#762a83" fill-opacity="0.72" /><circle cx="204.36" cy="315.28" r="4" fill="#762a83" fill-opacity="0.72" /><circle cx="204.83" cy="314.93" r="4" fill="#762a83" fill-opacity="0.72" /><circle cx="203.87" cy="316.32" r="4" fill="#762a83" fill-opacity="0.72" /><circle cx="205.94" cy="321.25" r="4" fill="#762a83" fill-opacity="0.72" /><circle cx="337.17" cy="315.44" r="4" fill="#762a83" fill-opacity="0.72" /><circle cx="203.71" cy="314.70" r="4" fill="#762a83" fill-opacity="0.72" /><circle cx="205.29" cy="319.38" r="4" fill="#762a83" fill-opacity="0.72" /><circle cx="203.80" cy="314.15" r="4" fill="#762a83" fill-opacity="0.72" /><circle cx="201.65" cy="316.34" r="4" fill="#762a83" fill-opacity="0.72" /><circle cx="189.40" cy="329.74" r="4" fill="#762a83" fill-opacity="0.72" /><circle cx="168.78" cy="274.14" r="4" fill="#762a83" fill-opacity="0.72" /><circle cx="199.77" cy="305.61" r="4" fill="#762a83" fill-opacity="0.72" /><circle cx="194.82" cy="306.89" r="4" fill="#762a83" fill-opacity="0.72" /><circle cx="192.51" cy="330.63" r="4" fill="#762a83" fill-opacity="0.72" /><circle cx="220.04" cy="314.67" r="4" fill="#762a83" fill-opacity="0.72" /><circle cx="201.80" cy="313.77" r="4" fill="#762a83" fill-opacity="0.72" /><circle cx="199.50" cy="313.19" r="4" fill="#762a83" fill-opacity="0.72" /><circle cx="223.75" cy="289.36" r="4" fill="#762a83" fill-opacity="0.72" /><circle cx="830.00" cy="279.42" r="4" fill="#762a83" fill-opacity="0.72" /><circle cx="199.72" cy="311.01" r="4" fill="#762a83" fill-opacity="0.72" /><circle cx="198.29" cy="304.84" r="4" fill="#762a83" fill-opacity="0.72" /><circle cx="202.22" cy="319.73" r="4" fill="#762a83" fill-opacity="0.72" /><circle cx="159.33" cy="281.53" r="4" fill="#762a83" fill-opacity="0.72" /><circle cx="197.00" cy="305.01" r="4" fill="#762a83" fill-opacity="0.72" /><circle cx="201.84" cy="307.24" r="4" fill="#762a83" fill-opacity="0.72" /><circle cx="192.74" cy="279.57" r="4" fill="#fdae61" fill-opacity="0.72" /><circle cx="193.35" cy="307.87" r="4" fill="#fdae61" fill-opacity="0.72" /><circle cx="233.93" cy="319.51" r="4" fill="#fdae61" fill-opacity="0.72" /><circle cx="204.05" cy="325.09" r="4" fill="#fdae61" fill-opacity="0.72" /><circle cx="138.20" cy="302.17" r="4" fill="#fdae61" fill-opacity="0.72" /><circle cx="150.95" cy="299.29" r="4" fill="#fdae61" fill-opacity="0.72" /><circle cx="134.55" cy="254.42" r="4" fill="#fdae61" fill-opacity="0.72" /><circle cx="204.46" cy="320.55" r="4" fill="#fdae61" fill-opacity="0.72" /><circle cx="203.92" cy="314.53" r="4" fill="#fdae61" fill-opacity="0.72" /><circle cx="191.57" cy="348.73" r="4" fill="#fdae61" fill-opacity="0.72" /><circle cx="164.29" cy="272.60" r="4" fill="#fdae61" fill-opacity="0.72" /><circle cx="192.28" cy="309.48" r="4" fill="#fdae61" fill-opacity="0.72" /><circle cx="214.33" cy="323.64" r="4" fill="#fdae61" fill-opacity="0.72" /><circle cx="213.92" cy="323.93" r="4" fill="#fdae61" fill-opacity="0.72" /><circle cx="84.99" cy="319.82" r="4" fill="#fdae61" fill-opacity="0.72" /><circle cx="187.80" cy="337.46" r="4" fill="#fdae61" fill-opacity="0.72" /><circle cx="197.79" cy="321.33" r="4" fill="#fdae61" fill-opacity="0.72" /><circle cx="202.31" cy="315.25" r="4" fill="#fdae61" fill-opacity="0.72" /><circle cx="162.38" cy="298.93" r="4" fill="#fdae61" fill-opacity="0.72" /><circle cx="199.25" cy="309.86" r="4" fill="#fdae61" fill-opacity="0.72" /><circle cx="203.26" cy="315.85" r="4" fill="#fdae61" fill-opacity="0.72" /><circle cx="216.38" cy="315.58" r="4" fill="#fdae61" fill-opacity="0.72" /><circle cx="203.27" cy="313.52" r="4" fill="#fdae61" fill-opacity="0.72" /><circle cx="204.32" cy="320.34" r="4" fill="#fdae61" fill-opacity="0.72" /><circle cx="205.62" cy="317.48" r="4" fill="#fdae61" fill-opacity="0.72" /><circle cx="219.69" cy="322.95" r="4" fill="#fdae61" fill-opacity="0.72" /><circle cx="196.02" cy="314.86" r="4" fill="#fdae61" fill-opacity="0.72" /><circle cx="203.80" cy="314.15" r="4" fill="#fdae61" fill-opacity="0.72" /><circle cx="194.82" cy="306.89" r="4" fill="#fdae61" fill-opacity="0.72" /><circle cx="648.42" cy="304.42" r="4" fill="#fdae61" fill-opacity="0.72" /><circle cx="188.77" cy="338.61" r="4" fill="#fdae61" fill-opacity="0.72" /><circle cx="187.44" cy="346.63" r="4" fill="#fdae61" fill-opacity="0.72" /><circle cx="199.07" cy="322.04" r="4" fill="#fdae61" fill-opacity="0.72" /><circle cx="364.08" cy="314.13" r="4" fill="#fdae61" fill-opacity="0.72" /><circle cx="402.34" cy="292.26" r="4" fill="#fdae61" fill-opacity="0.72" /><circle cx="201.80" cy="313.77" r="4" fill="#fdae61" fill-opacity="0.72" /><circle cx="163.32" cy="308.94" r="4" fill="#fdae61" fill-opacity="0.72" /><circle cx="230.19" cy="280.84" r="4" fill="#fdae61" fill-opacity="0.72" /><circle cx="830.00" cy="279.42" r="4" fill="#fdae61" fill-opacity="0.72" /><circle cx="222.98" cy="320.81" r="4" fill="#fdae61" fill-opacity="0.72" /><circle cx="196.95" cy="315.31" r="4" fill="#fdae61" fill-opacity="0.72" /><circle cx="202.22" cy="319.73" r="4" fill="#fdae61" fill-opacity="0.72" /><circle cx="159.33" cy="281.53" r="4" fill="#fdae61" fill-opacity="0.72" /><circle cx="201.38" cy="313.54" r="4" fill="#fdae61" fill-opacity="0.72" /><circle cx="201.84" cy="307.24" r="4" fill="#fdae61" fill-opacity="0.72" /><circle cx="406.07" cy="290.43" r="4" fill="#fdae61" fill-opacity="0.72" /><circle cx="202.22" cy="308.83" r="4" fill="#fdae61" fill-opacity="0.72" /><circle cx="180.16" cy="377.02" r="4" fill="#fdae61" fill-opacity="0.72" /><circle cx="211.57" cy="320.33" r="4" fill="#fdae61" fill-opacity="0.72" /><circle cx="70.00" cy="334.98" r="4" fill="#fdae61" fill-opacity="0.72" /><circle cx="138.20" cy="302.17" r="4" fill="#fdae61" fill-opacity="0.72" /><circle cx="201.57" cy="309.57" r="4" fill="#fdae61" fill-opacity="0.72" /><circle cx="151.48" cy="70.00" r="4" fill="#fdae61" fill-opacity="0.72" /><circle cx="164.29" cy="272.60" r="4" fill="#fdae61" fill-opacity="0.72" /><circle cx="202.77" cy="314.94" r="4" fill="#fdae61" fill-opacity="0.72" /><circle cx="214.33" cy="323.64" r="4" fill="#fdae61" fill-opacity="0.72" /><circle cx="196.08" cy="321.81" r="4" fill="#fdae61" fill-opacity="0.72" /><circle cx="144.65" cy="407.19" r="4" fill="#fdae61" fill-opacity="0.72" /><circle cx="237.11" cy="289.37" r="4" fill="#fdae61" fill-opacity="0.72" /><circle cx="218.08" cy="317.42" r="4" fill="#fdae61" fill-opacity="0.72" /><circle cx="203.87" cy="371.39" r="4" fill="#fdae61" fill-opacity="0.72" /><circle cx="192.24" cy="282.42" r="4" fill="#fdae61" fill-opacity="0.72" /><circle cx="287.28" cy="311.66" r="4" fill="#fdae61" fill-opacity="0.72" /><circle cx="193.87" cy="318.23" r="4" fill="#fdae61" fill-opacity="0.72" /><circle cx="151.83" cy="148.94" r="4" fill="#fdae61" fill-opacity="0.72" /><circle cx="136.00" cy="98.63" r="4" fill="#fdae61" fill-opacity="0.72" /><circle cx="205.94" cy="321.25" r="4" fill="#fdae61" fill-opacity="0.72" /><circle cx="207.32" cy="293.37" r="4" fill="#fdae61" fill-opacity="0.72" /><circle cx="219.69" cy="322.95" r="4" fill="#fdae61" fill-opacity="0.72" /><circle cx="203.71" cy="314.70" r="4" fill="#fdae61" fill-opacity="0.72" /><circle cx="205.29" cy="319.38" r="4" fill="#fdae61" fill-opacity="0.72" /><circle cx="195.93" cy="322.94" r="4" fill="#fdae61" fill-opacity="0.72" /><circle cx="189.40" cy="329.74" r="4" fill="#fdae61" fill-opacity="0.72" /><circle cx="162.58" cy="196.38" r="4" fill="#fdae61" fill-opacity="0.72" /><circle cx="180.19" cy="374.77" r="4" fill="#fdae61" fill-opacity="0.72" /><circle cx="210.14" cy="299.04" r="4" fill="#fdae61" fill-opacity="0.72" /><circle cx="196.95" cy="315.31" r="4" fill="#fdae61" fill-opacity="0.72" /><circle cx="184.70" cy="376.03" r="4" fill="#fdae61" fill-opacity="0.72" /><circle cx="98.23" cy="115.59" r="4" fill="#fdae61" fill-opacity="0.72" /><circle cx="373.54" cy="314.24" r="4" fill="#fdae61" fill-opacity="0.72" /><circle cx="195.41" cy="310.33" r="4" fill="#4575b4" fill-opacity="0.72" /><circle cx="162.95" cy="188.21" r="4" fill="#4575b4" fill-opacity="0.72" /><circle cx="189.57" cy="271.42" r="4" fill="#4575b4" fill-opacity="0.72" /><circle cx="221.80" cy="290.84" r="4" fill="#4575b4" fill-opacity="0.72" /><circle cx="96.59" cy="399.47" r="4" fill="#4575b4" fill-opacity="0.72" /><circle cx="150.95" cy="299.29" r="4" fill="#4575b4" fill-opacity="0.72" /><circle cx="213.65" cy="321.33" r="4" fill="#4575b4" fill-opacity="0.72" /><circle cx="203.49" cy="315.07" r="4" fill="#4575b4" fill-opacity="0.72" /><circle cx="103.33" cy="516.72" r="4" fill="#4575b4" fill-opacity="0.72" /><circle cx="237.11" cy="289.37" r="4" fill="#4575b4" fill-opacity="0.72" /><circle cx="246.93" cy="317.28" r="4" fill="#4575b4" fill-opacity="0.72" /><circle cx="203.87" cy="371.39" r="4" fill="#4575b4" fill-opacity="0.72" /><circle cx="197.79" cy="321.33" r="4" fill="#4575b4" fill-opacity="0.72" /><circle cx="202.36" cy="314.24" r="4" fill="#4575b4" fill-opacity="0.72" /><circle cx="193.74" cy="319.01" r="4" fill="#4575b4" fill-opacity="0.72" /><circle cx="183.06" cy="358.45" r="4" fill="#4575b4" fill-opacity="0.72" /><circle cx="129.38" cy="249.90" r="4" fill="#4575b4" fill-opacity="0.72" /><circle cx="151.83" cy="148.94" r="4" fill="#4575b4" fill-opacity="0.72" /><circle cx="204.32" cy="320.34" r="4" fill="#4575b4" fill-opacity="0.72" /><circle cx="209.44" cy="313.37" r="4" fill="#4575b4" fill-opacity="0.72" /><circle cx="207.32" cy="293.37" r="4" fill="#4575b4" fill-opacity="0.72" /><circle cx="219.69" cy="322.95" r="4" fill="#4575b4" fill-opacity="0.72" /><circle cx="144.49" cy="132.64" r="4" fill="#4575b4" fill-opacity="0.72" /><circle cx="203.30" cy="316.62" r="4" fill="#4575b4" fill-opacity="0.72" /><circle cx="151.48" cy="158.43" r="4" fill="#4575b4" fill-opacity="0.72" /><circle cx="243.26" cy="288.74" r="4" fill="#4575b4" fill-opacity="0.72" /><circle cx="200.27" cy="289.91" r="4" fill="#4575b4" fill-opacity="0.72" /><circle cx="203.80" cy="314.15" r="4" fill="#4575b4" fill-opacity="0.72" /><circle cx="124.95" cy="195.46" r="4" fill="#4575b4" fill-opacity="0.72" /><circle cx="232.50" cy="318.78" r="4" fill="#4575b4" fill-opacity="0.72" /><circle cx="648.42" cy="304.42" r="4" fill="#4575b4" fill-opacity="0.72" /><circle cx="188.77" cy="338.61" r="4" fill="#4575b4" fill-opacity="0.72" /><circle cx="90.99" cy="570.00" r="4" fill="#4575b4" fill-opacity="0.72" /><circle cx="141.97" cy="446.85" r="4" fill="#4575b4" fill-opacity="0.72" /><circle cx="208.37" cy="306.49" r="4" fill="#4575b4" fill-opacity="0.72" /><circle cx="201.26" cy="316.91" r="4" fill="#4575b4" fill-opacity="0.72" /><circle cx="179.97" cy="304.29" r="4" fill="#4575b4" fill-opacity="0.72" /><circle cx="190.15" cy="313.79" r="4" fill="#4575b4" fill-opacity="0.72" /><circle cx="159.33" cy="281.53" r="4" fill="#4575b4" fill-opacity="0.72" /><circle cx="124.22" cy="267.99" r="4" fill="#4575b4" fill-opacity="0.72" /><circle cx="143.28" cy="301.21" r="4" fill="#4575b4" fill-opacity="0.72" /><circle cx="210.36" cy="298.68" r="4" fill="#4575b4" fill-opacity="0.72" /><circle cx="96.59" cy="399.47" r="4" fill="#4575b4" fill-opacity="0.72" /><circle cx="160.97" cy="169.97" r="4" fill="#4575b4" fill-opacity="0.72" /><circle cx="206.21" cy="318.34" r="4" fill="#4575b4" fill-opacity="0.72" /><circle cx="202.30" cy="315.38" r="4" fill="#4575b4" fill-opacity="0.72" /><circle cx="198.81" cy="319.00" r="4" fill="#4575b4" fill-opacity="0.72" /><circle cx="186.36" cy="360.04" r="4" fill="#4575b4" fill-opacity="0.72" /><circle cx="213.92" cy="323.93" r="4" fill="#4575b4" fill-opacity="0.72" /><circle cx="218.08" cy="317.42" r="4" fill="#4575b4" fill-opacity="0.72" /><circle cx="203.87" cy="371.39" r="4" fill="#4575b4" fill-opacity="0.72" /><circle cx="187.80" cy="337.46" r="4" fill="#4575b4" fill-opacity="0.72" /><circle cx="207.95" cy="316.09" r="4" fill="#4575b4" fill-opacity="0.72" /><circle cx="202.31" cy="315.25" r="4" fill="#4575b4" fill-opacity="0.72" /><circle cx="183.06" cy="358.45" r="4" fill="#4575b4" fill-opacity="0.72" /><circle cx="162.38" cy="298.93" r="4" fill="#4575b4" fill-opacity="0.72" /><circle cx="151.83" cy="148.94" r="4" fill="#4575b4" fill-opacity="0.72" /><circle cx="207.32" cy="293.37" r="4" fill="#4575b4" fill-opacity="0.72" /><circle cx="209.64" cy="313.54" r="4" fill="#4575b4" fill-opacity="0.72" /><circle cx="144.49" cy="132.64" r="4" fill="#4575b4" fill-opacity="0.72" /><circle cx="115.52" cy="107.41" r="4" fill="#4575b4" fill-opacity="0.72" /><circle cx="181.72" cy="304.08" r="4" fill="#4575b4" fill-opacity="0.72" /><circle cx="201.12" cy="306.10" r="4" fill="#4575b4" fill-opacity="0.72" /><circle cx="186.04" cy="335.05" r="4" fill="#4575b4" fill-opacity="0.72" /><circle cx="195.93" cy="322.94" r="4" fill="#4575b4" fill-opacity="0.72" /><circle cx="199.96" cy="309.26" r="4" fill="#4575b4" fill-opacity="0.72" /><circle cx="190.91" cy="331.37" r="4" fill="#4575b4" fill-opacity="0.72" /><circle cx="206.77" cy="321.07" r="4" fill="#4575b4" fill-opacity="0.72" /><circle cx="194.82" cy="306.89" r="4" fill="#4575b4" fill-opacity="0.72" /><circle cx="232.50" cy="318.78" r="4" fill="#4575b4" fill-opacity="0.72" /><circle cx="220.04" cy="314.67" r="4" fill="#4575b4" fill-opacity="0.72" /><circle cx="180.19" cy="374.77" r="4" fill="#4575b4" fill-opacity="0.72" /><circle cx="166.94" cy="341.94" r="4" fill="#4575b4" fill-opacity="0.72" /><circle cx="198.29" cy="304.84" r="4" fill="#4575b4" fill-opacity="0.72" /><circle cx="98.23" cy="115.59" r="4" fill="#4575b4" fill-opacity="0.72" /><circle cx="174.32" cy="285.17" r="4" fill="#4575b4" fill-opacity="0.72" /><circle cx="122.06" cy="278.28" r="4" fill="#4575b4" fill-opacity="0.72" /><circle cx="159.33" cy="281.53" r="4" fill="#4575b4" fill-opacity="0.72" /><circle cx="124.22" cy="267.99" r="4" fill="#4575b4" fill-opacity="0.72" /><circle cx="143.28" cy="301.21" r="4" fill="#4575b4" fill-opacity="0.72" /><circle cx="195.41" cy="310.33" r="4" fill="#66c2a5" fill-opacity="0.72" /><circle cx="193.35" cy="307.87" r="4" fill="#66c2a5" fill-opacity="0.72" /><circle cx="200.67" cy="231.89" r="4" fill="#66c2a5" fill-opacity="0.72" /><circle cx="162.95" cy="188.21" r="4" fill="#66c2a5" fill-opacity="0.72" /><circle cx="221.80" cy="290.84" r="4" fill="#66c2a5" fill-opacity="0.72" /><circle cx="70.00" cy="334.98" r="4" fill="#66c2a5" fill-opacity="0.72" /><circle cx="150.95" cy="299.29" r="4" fill="#66c2a5" fill-opacity="0.72" /><circle cx="201.27" cy="311.42" r="4" fill="#66c2a5" fill-opacity="0.72" /><circle cx="134.55" cy="254.42" r="4" fill="#66c2a5" fill-opacity="0.72" /><circle cx="151.48" cy="70.00" r="4" fill="#66c2a5" fill-opacity="0.72" /><circle cx="204.46" cy="320.55" r="4" fill="#66c2a5" fill-opacity="0.72" /><circle cx="202.30" cy="315.38" r="4" fill="#66c2a5" fill-opacity="0.72" /><circle cx="123.69" cy="466.03" r="4" fill="#66c2a5" fill-opacity="0.72" /><circle cx="141.87" cy="436.91" r="4" fill="#66c2a5" fill-opacity="0.72" /><circle cx="144.65" cy="407.19" r="4" fill="#66c2a5" fill-opacity="0.72" /><circle cx="194.07" cy="315.99" r="4" fill="#66c2a5" fill-opacity="0.72" /><circle cx="150.79" cy="173.46" r="4" fill="#66c2a5" fill-opacity="0.72" /><circle cx="216.38" cy="315.58" r="4" fill="#66c2a5" fill-opacity="0.72" /><circle cx="200.34" cy="306.81" r="4" fill="#66c2a5" fill-opacity="0.72" /><circle cx="200.24" cy="315.38" r="4" fill="#66c2a5" fill-opacity="0.72" /><circle cx="205.94" cy="321.25" r="4" fill="#66c2a5" fill-opacity="0.72" /><circle cx="115.52" cy="107.41" r="4" fill="#66c2a5" fill-opacity="0.72" /><circle cx="202.29" cy="315.14" r="4" fill="#66c2a5" fill-opacity="0.72" /><circle cx="200.27" cy="289.91" r="4" fill="#66c2a5" fill-opacity="0.72" /><circle cx="212.91" cy="319.96" r="4" fill="#66c2a5" fill-opacity="0.72" /><circle cx="182.80" cy="339.33" r="4" fill="#66c2a5" fill-opacity="0.72" /><circle cx="194.82" cy="306.89" r="4" fill="#66c2a5" fill-opacity="0.72" /><circle cx="176.43" cy="346.55" r="4" fill="#66c2a5" fill-opacity="0.72" /><circle cx="201.80" cy="313.77" r="4" fill="#66c2a5" fill-opacity="0.72" /><circle cx="230.19" cy="280.84" r="4" fill="#66c2a5" fill-opacity="0.72" /><circle cx="830.00" cy="279.42" r="4" fill="#66c2a5" fill-opacity="0.72" /><circle cx="618.75" cy="305.03" r="4" fill="#66c2a5" fill-opacity="0.72" /><circle cx="179.97" cy="304.29" r="4" fill="#66c2a5" fill-opacity="0.72" /><circle cx="159.33" cy="281.53" r="4" fill="#66c2a5" fill-opacity="0.72" /><circle cx="143.28" cy="301.21" r="4" fill="#66c2a5" fill-opacity="0.72" /><circle cx="406.07" cy="290.43" r="4" fill="#66c2a5" fill-opacity="0.72" /><circle cx="192.74" cy="279.57" r="4" fill="#66c2a5" fill-opacity="0.72" /><circle cx="166.94" cy="297.97" r="4" fill="#66c2a5" fill-opacity="0.72" /><circle cx="180.16" cy="377.02" r="4" fill="#66c2a5" fill-opacity="0.72" /><circle cx="204.05" cy="325.09" r="4" fill="#66c2a5" fill-opacity="0.72" /><circle cx="70.00" cy="334.98" r="4" fill="#66c2a5" fill-opacity="0.72" /><circle cx="138.20" cy="302.17" r="4" fill="#66c2a5" fill-opacity="0.72" /><circle cx="164.29" cy="272.60" r="4" fill="#66c2a5" fill-opacity="0.72" /><circle cx="192.28" cy="309.48" r="4" fill="#66c2a5" fill-opacity="0.72" /><circle cx="203.98" cy="315.23" r="4" fill="#66c2a5" fill-opacity="0.72" /><circle cx="212.25" cy="313.86" r="4" fill="#66c2a5" fill-opacity="0.72" /><circle cx="141.87" cy="436.91" r="4" fill="#66c2a5" fill-opacity="0.72" /><circle cx="162.30" cy="374.53" r="4" fill="#66c2a5" fill-opacity="0.72" /><circle cx="218.08" cy="317.42" r="4" fill="#66c2a5" fill-opacity="0.72" /><circle cx="192.24" cy="282.42" r="4" fill="#66c2a5" fill-opacity="0.72" /><circle cx="287.28" cy="311.66" r="4" fill="#66c2a5" fill-opacity="0.72" /><circle cx="193.87" cy="318.23" r="4" fill="#66c2a5" fill-opacity="0.72" /><circle cx="193.74" cy="319.01" r="4" fill="#66c2a5" fill-opacity="0.72" /><circle cx="151.83" cy="148.94" r="4" fill="#66c2a5" fill-opacity="0.72" /><circle cx="136.00" cy="98.63" r="4" fill="#66c2a5" fill-opacity="0.72" /><circle cx="150.79" cy="173.46" r="4" fill="#66c2a5" fill-opacity="0.72" /><circle cx="204.83" cy="314.93" r="4" fill="#66c2a5" fill-opacity="0.72" /><circle cx="203.87" cy="316.32" r="4" fill="#66c2a5" fill-opacity="0.72" /><circle cx="204.32" cy="320.34" r="4" fill="#66c2a5" fill-opacity="0.72" /><circle cx="184.39" cy="359.93" r="4" fill="#66c2a5" fill-opacity="0.72" /><circle cx="207.32" cy="293.37" r="4" fill="#66c2a5" fill-opacity="0.72" /><circle cx="219.78" cy="319.27" r="4" fill="#66c2a5" fill-opacity="0.72" /><circle cx="198.66" cy="313.34" r="4" fill="#66c2a5" fill-opacity="0.72" /><circle cx="199.96" cy="309.26" r="4" fill="#66c2a5" fill-opacity="0.72" /><circle cx="206.77" cy="321.07" r="4" fill="#66c2a5" fill-opacity="0.72" /><circle cx="194.82" cy="306.89" r="4" fill="#66c2a5" fill-opacity="0.72" /><circle cx="648.42" cy="304.42" r="4" fill="#66c2a5" fill-opacity="0.72" /><circle cx="119.03" cy="158.31" r="4" fill="#66c2a5" fill-opacity="0.72" /><circle cx="90.99" cy="570.00" r="4" fill="#66c2a5" fill-opacity="0.72" /><circle cx="141.97" cy="446.85" r="4" fill="#66c2a5" fill-opacity="0.72" /><circle cx="401.40" cy="348.27" r="4" fill="#66c2a5" fill-opacity="0.72" /><circle cx="220.04" cy="314.67" r="4" fill="#66c2a5" fill-opacity="0.72" /><circle cx="364.08" cy="314.13" r="4" fill="#66c2a5" fill-opacity="0.72" /><circle cx="201.80" cy="313.77" r="4" fill="#66c2a5" fill-opacity="0.72" /><circle cx="163.32" cy="308.94" r="4" fill="#66c2a5" fill-opacity="0.72" /><circle cx="198.29" cy="304.84" r="4" fill="#66c2a5" fill-opacity="0.72" /><circle cx="174.32" cy="285.17" r="4" fill="#66c2a5" fill-opacity="0.72" /><circle cx="159.33" cy="281.53" r="4" fill="#66c2a5" fill-opacity="0.72" /><circle cx="201.38" cy="313.54" r="4" fill="#66c2a5" fill-opacity="0.72" /><circle cx="373.54" cy="314.24" r="4" fill="#66c2a5" fill-opacity="0.72" /><circle cx="192.74" cy="279.57" r="4" fill="#313695" fill-opacity="0.72" /><circle cx="233.93" cy="319.51" r="4" fill="#313695" fill-opacity="0.72" /><circle cx="727.83" cy="300.52" r="4" fill="#313695" fill-opacity="0.72" /><circle cx="180.16" cy="377.02" r="4" fill="#313695" fill-opacity="0.72" /><circle cx="160.97" cy="169.97" r="4" fill="#313695" fill-opacity="0.72" /><circle cx="145.32" cy="302.18" r="4" fill="#313695" fill-opacity="0.72" /><circle cx="210.34" cy="320.35" r="4" fill="#313695" fill-opacity="0.72" /><circle cx="185.88" cy="339.39" r="4" fill="#313695" fill-opacity="0.72" /><circle cx="192.28" cy="309.48" r="4" fill="#313695" fill-opacity="0.72" /><circle cx="214.33" cy="323.64" r="4" fill="#313695" fill-opacity="0.72" /><circle cx="202.30" cy="315.38" r="4" fill="#313695" fill-opacity="0.72" /><circle cx="198.81" cy="319.00" r="4" fill="#313695" fill-opacity="0.72" /><circle cx="178.12" cy="299.41" r="4" fill="#313695" fill-opacity="0.72" /><circle cx="218.08" cy="317.42" r="4" fill="#313695" fill-opacity="0.72" /><circle cx="193.87" cy="318.23" r="4" fill="#313695" fill-opacity="0.72" /><circle cx="199.25" cy="309.86" r="4" fill="#313695" fill-opacity="0.72" /><circle cx="151.83" cy="148.94" r="4" fill="#313695" fill-opacity="0.72" /><circle cx="203.15" cy="315.15" r="4" fill="#313695" fill-opacity="0.72" /><circle cx="200.34" cy="306.81" r="4" fill="#313695" fill-opacity="0.72" /><circle cx="205.94" cy="321.25" r="4" fill="#313695" fill-opacity="0.72" /><circle cx="205.62" cy="317.48" r="4" fill="#313695" fill-opacity="0.72" /><circle cx="144.49" cy="132.64" r="4" fill="#313695" fill-opacity="0.72" /><circle cx="115.52" cy="107.41" r="4" fill="#313695" fill-opacity="0.72" /><circle cx="158.18" cy="300.38" r="4" fill="#313695" fill-opacity="0.72" /><circle cx="196.02" cy="314.86" r="4" fill="#313695" fill-opacity="0.72" /><circle cx="90.99" cy="570.00" r="4" fill="#313695" fill-opacity="0.72" /><circle cx="398.75" cy="353.64" r="4" fill="#313695" fill-opacity="0.72" /><circle cx="346.59" cy="313.24" r="4" fill="#313695" fill-opacity="0.72" /><circle cx="364.08" cy="314.13" r="4" fill="#313695" fill-opacity="0.72" /><circle cx="201.80" cy="313.77" r="4" fill="#313695" fill-opacity="0.72" /><circle cx="205.45" cy="319.14" r="4" fill="#313695" fill-opacity="0.72" /><circle cx="202.22" cy="319.73" r="4" fill="#313695" fill-opacity="0.72" /><circle cx="144.81" cy="129.99" r="4" fill="#313695" fill-opacity="0.72" /><circle cx="406.07" cy="290.43" r="4" fill="#313695" fill-opacity="0.72" /><circle cx="727.83" cy="300.52" r="4" fill="#313695" fill-opacity="0.72" /><circle cx="204.05" cy="325.09" r="4" fill="#313695" fill-opacity="0.72" /><circle cx="96.59" cy="399.47" r="4" fill="#313695" fill-opacity="0.72" /><circle cx="70.00" cy="334.98" r="4" fill="#313695" fill-opacity="0.72" /><circle cx="151.54" cy="302.41" r="4" fill="#313695" fill-opacity="0.72" /><circle cx="201.57" cy="309.57" r="4" fill="#313695" fill-opacity="0.72" /><circle cx="213.65" cy="321.33" r="4" fill="#313695" fill-opacity="0.72" /><circle cx="151.48" cy="70.00" r="4" fill="#313695" fill-opacity="0.72" /><circle cx="204.46" cy="320.55" r="4" fill="#313695" fill-opacity="0.72" /><circle cx="198.57" cy="311.66" r="4" fill="#313695" fill-opacity="0.72" /><circle cx="206.21" cy="318.34" r="4" fill="#313695" fill-opacity="0.72" /><circle cx="185.88" cy="339.39" r="4" fill="#313695" fill-opacity="0.72" /><circle cx="154.10" cy="428.04" r="4" fill="#313695" fill-opacity="0.72" /><circle cx="189.76" cy="340.12" r="4" fill="#313695" fill-opacity="0.72" /><circle cx="203.98" cy="315.23" r="4" fill="#313695" fill-opacity="0.72" /><circle cx="103.33" cy="516.72" r="4" fill="#313695" fill-opacity="0.72" /><circle cx="84.99" cy="319.82" r="4" fill="#313695" fill-opacity="0.72" /><circle cx="144.65" cy="407.19" r="4" fill="#313695" fill-opacity="0.72" /><circle cx="192.24" cy="282.42" r="4" fill="#313695" fill-opacity="0.72" /><circle cx="287.28" cy="311.66" r="4" fill="#313695" fill-opacity="0.72" /><circle cx="204.96" cy="323.16" r="4" fill="#313695" fill-opacity="0.72" /><circle cx="129.38" cy="249.90" r="4" fill="#313695" fill-opacity="0.72" /><circle cx="203.26" cy="315.85" r="4" fill="#313695" fill-opacity="0.72" /><circle cx="123.07" cy="261.57" r="4" fill="#313695" fill-opacity="0.72" /><circle cx="184.39" cy="359.93" r="4" fill="#313695" fill-opacity="0.72" /><circle cx="337.17" cy="315.44" r="4" fill="#313695" fill-opacity="0.72" /><circle cx="115.52" cy="107.41" r="4" fill="#313695" fill-opacity="0.72" /><circle cx="203.30" cy="316.62" r="4" fill="#313695" fill-opacity="0.72" /><circle cx="151.48" cy="158.43" r="4" fill="#313695" fill-opacity="0.72" /><circle cx="158.18" cy="300.38" r="4" fill="#313695" fill-opacity="0.72" /><circle cx="201.65" cy="316.34" r="4" fill="#313695" fill-opacity="0.72" /><circle cx="182.80" cy="339.33" r="4" fill="#313695" fill-opacity="0.72" /><circle cx="189.40" cy="329.74" r="4" fill="#313695" fill-opacity="0.72" /><circle cx="124.95" cy="195.46" r="4" fill="#313695" fill-opacity="0.72" /><circle cx="648.42" cy="304.42" r="4" fill="#313695" fill-opacity="0.72" /><circle cx="90.99" cy="570.00" r="4" fill="#313695" fill-opacity="0.72" /><circle cx="176.43" cy="346.55" r="4" fill="#313695" fill-opacity="0.72" /><circle cx="364.08" cy="314.13" r="4" fill="#313695" fill-opacity="0.72" /><circle cx="208.37" cy="306.49" r="4" fill="#313695" fill-opacity="0.72" /><circle cx="199.50" cy="313.19" r="4" fill="#313695" fill-opacity="0.72" /><circle cx="216.16" cy="312.77" r="4" fill="#313695" fill-opacity="0.72" /><circle cx="222.98" cy="320.81" r="4" fill="#313695" fill-opacity="0.72" /><circle cx="192.07" cy="296.71" r="4" fill="#313695" fill-opacity="0.72" /><circle cx="201.26" cy="316.91" r="4" fill="#313695" fill-opacity="0.72" /><circle cx="179.97" cy="304.29" r="4" fill="#313695" fill-opacity="0.72" /><circle cx="122.06" cy="278.28" r="4" fill="#313695" fill-opacity="0.72" />
<rect x="690" y="32" width="14" height="14" fill="#d73027" /><text x="712" y="44" font-size="14">angry</text><rect x="690" y="56" width="14" height="14" fill="#1a9850" /><text x="712" y="68" font-size="14">disgust</text><rect x="690" y="80" width="14" height="14" fill="#762a83" /><text x="712" y="92" font-size="14">fear</text><rect x="690" y="104" width="14" height="14" fill="#fdae61" /><text x="712" y="116" font-size="14">happy</text><rect x="690" y="128" width="14" height="14" fill="#4575b4" /><text x="712" y="140" font-size="14">neutral</text><rect x="690" y="152" width="14" height="14" fill="#66c2a5" /><text x="712" y="164" font-size="14">pleasant_surprise</text><rect x="690" y="176" width="14" height="14" fill="#313695" /><text x="712" y="188" font-size="14">sad</text>
</svg>
